<?xml version="1.0" encoding="UTF-8"?>
<svg xmlns="http://www.w3.org/2000/svg" xmlns:xlink="http://www.w3.org/1999/xlink" width="13pt" height="11.63769pt" viewBox="0 0 13 11.63769" version="1.1">
<defs>
<clipPath id="clip1">
  <path d="M 0 0 L 13 0 L 13 11.636719 L 0 11.636719 Z M 0 0 "/>
</clipPath>
</defs>
<g id="surface1">
<g clip-path="url(#clip1)" clip-rule="nonzero">
<path style=" stroke:none;fill-rule:evenodd;fill:rgb(100%,100%,100%);fill-opacity:1;" d="M 3.9375 5.132812 C 5.355469 5.132812 6.503906 3.984375 6.503906 2.566406 C 6.503906 1.148438 5.355469 0 3.9375 0 C 2.519531 0 1.371094 1.148438 1.371094 2.566406 C 1.371094 3.984375 2.519531 5.132812 3.9375 5.132812 Z M 3.9375 6.160156 C 1.765625 6.160156 0 7.925781 0 10.097656 L 0 11.636719 L 7.871094 11.636719 L 7.871094 10.097656 C 7.871094 7.925781 6.105469 6.160156 3.9375 6.160156 Z M 11.332031 2.195312 L 11.332031 3.863281 L 13 3.863281 L 13 5.351562 L 11.332031 5.351562 L 11.332031 7.015625 L 9.847656 7.015625 L 9.847656 5.351562 L 8.179688 5.351562 L 8.179688 3.863281 L 9.847656 3.863281 L 9.847656 2.195312 Z M 11.332031 2.195312 "/>
</g>
</g>
</svg>
