<?xml version="1.0" encoding="UTF-8"?>
<svg xmlns="http://www.w3.org/2000/svg" xmlns:xlink="http://www.w3.org/1999/xlink" width="18pt" height="18pt" viewBox="0 0 18 18" version="1.1">
<defs>
<clipPath id="clip1">
  <path d="M 2.636719 2.636719 C -0.878906 6.152344 -0.878906 11.847656 2.636719 15.363281 C 6.152344 18.878906 11.847656 18.878906 15.363281 15.363281 C 18.878906 11.847656 18.878906 6.152344 15.363281 2.636719 C 11.847656 -0.878906 6.152344 -0.878906 2.636719 2.636719 Z M 9.359375 3.777344 C 10.121094 3.777344 10.730469 4.402344 10.730469 5.164062 C 10.730469 5.921875 10.101562 6.550781 9.359375 6.550781 C 8.601562 6.550781 7.972656 5.921875 7.972656 5.144531 C 7.972656 4.382812 8.601562 3.777344 9.359375 3.777344 Z M 11.316406 13.066406 C 11.28125 13.179688 11.203125 13.3125 11.128906 13.386719 C 10.632812 13.902344 10.027344 14.207031 9.304688 14.207031 C 8.960938 14.207031 8.640625 14.207031 8.296875 14.148438 C 7.746094 14.074219 7.042969 13.386719 7.136719 12.667969 C 7.214844 12.171875 7.289062 11.679688 7.367188 11.183594 C 7.519531 10.328125 7.671875 9.457031 7.820312 8.601562 C 7.820312 8.542969 7.839844 8.488281 7.839844 8.429688 C 7.839844 8.070312 7.726562 7.9375 7.367188 7.898438 C 7.214844 7.878906 7.0625 7.859375 6.910156 7.820312 C 6.738281 7.765625 6.644531 7.613281 6.664062 7.480469 C 6.683594 7.328125 6.777344 7.234375 6.96875 7.195312 C 7.0625 7.175781 7.175781 7.175781 7.289062 7.175781 C 7.707031 7.175781 8.125 7.175781 8.5625 7.175781 C 9.019531 7.175781 9.457031 7.175781 9.910156 7.175781 C 10.234375 7.175781 10.425781 7.328125 10.425781 7.652344 C 10.425781 7.917969 10.386719 8.183594 10.328125 8.449219 C 10.160156 9.4375 9.96875 10.40625 9.796875 11.394531 C 9.742188 11.714844 9.664062 12.039062 9.625 12.363281 C 9.609375 12.515625 9.625 12.683594 9.664062 12.835938 C 9.722656 13.046875 9.875 13.160156 10.082031 13.140625 C 10.253906 13.121094 10.425781 13.066406 10.597656 12.988281 C 10.730469 12.933594 10.84375 12.835938 10.976562 12.800781 C 11.203125 12.722656 11.375 12.855469 11.316406 13.066406 Z M 11.316406 13.066406 "/>
</clipPath>
</defs>
<g id="surface1">
<g clip-path="url(#clip1)" clip-rule="nonzero">
<rect x="0" y="0" width="18" height="18" style="fill:rgb(0%,0%,0%);fill-opacity:1;stroke:none;"/>
</g>
</g>
</svg>
