<?xml version="1.0" encoding="UTF-8"?>
<svg xmlns="http://www.w3.org/2000/svg" xmlns:xlink="http://www.w3.org/1999/xlink" width="56pt" height="56pt" viewBox="0 0 56 56" version="1.1">
<g id="surface1">
<path style=" stroke:none;fill-rule:evenodd;fill:rgb(0%,0%,0%);fill-opacity:1;" d="M 56 28 C 56 43.464844 43.464844 56 28 56 C 12.535156 56 0 43.464844 0 28 C 0 12.535156 12.535156 0 28 0 C 43.464844 0 56 12.535156 56 28 Z M 54 28 C 54 42.359375 42.359375 54 28 54 C 13.640625 54 2 42.359375 2 28 C 2 13.640625 13.640625 2 28 2 C 42.359375 2 54 13.640625 54 28 Z M 40.171875 22.640625 L 40.171875 19.421875 L 38.5625 19.421875 L 38.5625 16.96875 C 38.574219 16.316406 38.550781 14.5 38.550781 14.5 L 17.492188 14.5 L 17.492188 38.03125 C 17.480469 38.679688 17.492188 40.5 17.492188 40.5 L 38.550781 40.5 L 38.550781 35.601562 L 40.164062 35.601562 L 40.164062 32.378906 L 38.550781 32.378906 L 38.550781 29.121094 L 40.164062 29.121094 L 40.164062 25.890625 L 38.550781 25.890625 L 38.550781 22.640625 Z M 27.980469 26.742188 C 26.390625 26.742188 25.101562 25.414062 25.101562 23.769531 C 25.101562 22.128906 26.390625 20.785156 27.980469 20.785156 C 29.574219 20.785156 30.863281 22.117188 30.863281 23.757812 C 30.863281 25.402344 29.574219 26.742188 27.980469 26.742188 Z M 27.980469 27.90625 C 30.953125 27.90625 33.371094 30.507812 33.371094 33.695312 L 22.59375 33.695312 C 22.59375 30.507812 25.011719 27.90625 27.980469 27.90625 Z M 27.980469 27.90625 "/>
</g>
</svg>
