<?xml version="1.0" encoding="UTF-8"?>
<svg xmlns="http://www.w3.org/2000/svg" xmlns:xlink="http://www.w3.org/1999/xlink" width="24.7998pt" height="23.68945pt" viewBox="0 0 24.7998 23.68945" version="1.1">
<defs>
<clipPath id="clip1">
  <path d="M 0 0 L 24.800781 0 L 24.800781 23.6875 L 0 23.6875 Z M 0 0 "/>
</clipPath>
</defs>
<g id="surface1">
<g clip-path="url(#clip1)" clip-rule="nonzero">
<path style=" stroke:none;fill-rule:evenodd;fill:rgb(0%,0%,0%);fill-opacity:1;" d="M 16 8 L 16 8.050781 C 13.554688 8.292969 11.371094 9.414062 9.765625 11.097656 C 9.234375 10.933594 8.671875 10.84375 8.085938 10.84375 C 5.789062 10.84375 3.808594 12.21875 2.929688 14.1875 C 1.140625 12.722656 0 10.496094 0 8 C 0 3.582031 3.582031 0 8 0 C 12.417969 0 16 3.582031 16 8 Z M 8.097656 9.035156 C 9.761719 9.035156 11.109375 7.6875 11.109375 6.023438 C 11.109375 4.359375 9.761719 3.011719 8.097656 3.011719 C 6.433594 3.011719 5.085938 4.359375 5.085938 6.023438 C 5.085938 7.6875 6.433594 9.035156 8.097656 9.035156 Z M 24.800781 17.5 C 24.800781 19.9375 23.710938 22.117188 21.992188 23.585938 C 21.089844 21.667969 19.144531 20.34375 16.886719 20.34375 C 14.585938 20.34375 12.609375 21.71875 11.730469 23.6875 C 9.941406 22.222656 8.800781 19.996094 8.800781 17.5 C 8.800781 13.082031 12.382812 9.5 16.800781 9.5 C 21.21875 9.5 24.800781 13.082031 24.800781 17.5 Z M 19.910156 15.523438 C 19.910156 17.1875 18.5625 18.535156 16.898438 18.535156 C 15.234375 18.535156 13.886719 17.1875 13.886719 15.523438 C 13.886719 13.859375 15.234375 12.511719 16.898438 12.511719 C 18.5625 12.511719 19.910156 13.859375 19.910156 15.523438 Z M 19.910156 15.523438 "/>
</g>
</g>
</svg>
