<?xml version="1.0" encoding="UTF-8"?>
<svg xmlns="http://www.w3.org/2000/svg" xmlns:xlink="http://www.w3.org/1999/xlink" width="11.70703pt" height="11.70715pt" viewBox="0 0 11.70703 11.70715" version="1.1">
<defs>
<clipPath id="clip1">
  <path d="M 0 0 L 11.707031 0 L 11.707031 11.707031 L 0 11.707031 Z M 0 0 "/>
</clipPath>
</defs>
<g id="surface1">
<g clip-path="url(#clip1)" clip-rule="nonzero">
<path style=" stroke:none;fill-rule:evenodd;fill:rgb(0%,0%,0%);fill-opacity:1;" d="M 11.355469 9.78125 L 9.78125 11.351562 L 5.855469 7.425781 L 1.925781 11.351562 L 0.355469 9.78125 L 4.28125 5.851562 L 0.355469 1.925781 L 1.925781 0.351562 L 5.855469 4.28125 L 9.78125 0.351562 L 11.355469 1.925781 L 7.425781 5.851562 Z M 11.355469 9.78125 "/>
<path style=" stroke:none;fill-rule:nonzero;fill:rgb(0%,0%,0%);fill-opacity:1;" d="M 11.355469 9.78125 L 11.53125 9.957031 L 11.707031 9.78125 L 11.53125 9.605469 Z M 9.78125 11.351562 L 9.605469 11.53125 L 9.78125 11.707031 L 9.957031 11.53125 Z M 5.855469 7.425781 L 6.03125 7.25 L 5.855469 7.070312 L 5.675781 7.25 Z M 1.925781 11.351562 L 1.75 11.53125 L 1.925781 11.707031 L 2.101562 11.53125 Z M 0.355469 9.78125 L 0.175781 9.605469 L 0 9.78125 L 0.175781 9.957031 Z M 4.28125 5.851562 L 4.457031 6.03125 L 4.636719 5.851562 L 4.457031 5.675781 Z M 0.355469 1.925781 L 0.175781 1.75 L 0 1.925781 L 0.175781 2.101562 Z M 1.925781 0.351562 L 2.101562 0.175781 L 1.925781 0 L 1.75 0.175781 Z M 5.855469 4.28125 L 5.675781 4.457031 L 5.855469 4.636719 L 6.03125 4.457031 Z M 9.78125 0.351562 L 9.957031 0.175781 L 9.78125 0 L 9.605469 0.175781 Z M 11.355469 1.925781 L 11.53125 2.101562 L 11.707031 1.925781 L 11.53125 1.75 Z M 7.425781 5.851562 L 7.25 5.675781 L 7.070312 5.851562 L 7.25 6.03125 Z M 11.175781 9.605469 L 9.605469 11.175781 L 9.957031 11.53125 L 11.53125 9.957031 Z M 9.957031 11.175781 L 6.03125 7.25 L 5.675781 7.601562 L 9.605469 11.53125 Z M 5.675781 7.25 L 1.75 11.175781 L 2.101562 11.53125 L 6.03125 7.601562 Z M 2.101562 11.175781 L 0.53125 9.605469 L 0.175781 9.957031 L 1.75 11.53125 Z M 0.53125 9.957031 L 4.457031 6.03125 L 4.105469 5.675781 L 0.175781 9.605469 Z M 4.457031 5.675781 L 0.53125 1.75 L 0.175781 2.101562 L 4.105469 6.03125 Z M 0.53125 2.101562 L 2.101562 0.53125 L 1.75 0.175781 L 0.175781 1.75 Z M 1.75 0.53125 L 5.675781 4.457031 L 6.03125 4.105469 L 2.101562 0.175781 Z M 6.03125 4.457031 L 9.957031 0.53125 L 9.605469 0.175781 L 5.675781 4.105469 Z M 9.605469 0.53125 L 11.175781 2.101562 L 11.53125 1.75 L 9.957031 0.175781 Z M 11.175781 1.75 L 7.25 5.675781 L 7.601562 6.03125 L 11.53125 2.101562 Z M 7.25 6.03125 L 11.175781 9.957031 L 11.53125 9.605469 L 7.601562 5.675781 Z M 7.25 6.03125 "/>
</g>
</g>
</svg>
