<?xml version="1.0" encoding="UTF-8"?>
<svg xmlns="http://www.w3.org/2000/svg" xmlns:xlink="http://www.w3.org/1999/xlink" width="14.2998pt" height="10.11682pt" viewBox="0 0 14.2998 10.11682" version="1.1">
<g id="surface1">
<path style=" stroke:none;fill-rule:nonzero;fill:rgb(0%,0%,0%);fill-opacity:1;" d="M 1.300781 5.058594 C 1.300781 5.996094 1.859375 6.917969 2.917969 7.636719 C 3.972656 8.351562 5.46875 8.816406 7.152344 8.816406 L 7.152344 10.117188 C 5.242188 10.117188 3.488281 9.59375 2.1875 8.714844 C 0.894531 7.835938 0 6.554688 0 5.058594 Z M 7.152344 8.816406 C 8.832031 8.816406 10.328125 8.351562 11.382812 7.636719 C 12.441406 6.917969 13 5.996094 13 5.058594 L 14.300781 5.058594 C 14.300781 6.554688 13.40625 7.835938 12.113281 8.714844 C 10.8125 9.59375 9.058594 10.117188 7.152344 10.117188 Z M 13 5.058594 C 13 4.121094 12.441406 3.195312 11.382812 2.480469 C 10.328125 1.761719 8.832031 1.300781 7.152344 1.300781 L 7.152344 0 C 9.058594 0 10.8125 0.523438 12.113281 1.402344 C 13.40625 2.28125 14.300781 3.5625 14.300781 5.058594 Z M 7.152344 1.300781 C 5.46875 1.300781 3.972656 1.761719 2.917969 2.480469 C 1.859375 3.195312 1.300781 4.121094 1.300781 5.058594 L 0 5.058594 C 0 3.5625 0.894531 2.28125 2.1875 1.402344 C 3.488281 0.523438 5.242188 0 7.152344 0 Z M 7.152344 1.300781 "/>
<path style=" stroke:none;fill-rule:nonzero;fill:rgb(0%,0%,0%);fill-opacity:1;" d="M 7.152344 7.40625 C 8.449219 7.40625 9.5 6.355469 9.5 5.058594 C 9.5 3.761719 8.449219 2.710938 7.152344 2.710938 C 5.851562 2.710938 4.800781 3.761719 4.800781 5.058594 C 4.800781 6.355469 5.851562 7.40625 7.152344 7.40625 Z M 7.152344 7.40625 "/>
</g>
</svg>
