<?xml version="1.0" encoding="UTF-8"?>
<svg xmlns="http://www.w3.org/2000/svg" xmlns:xlink="http://www.w3.org/1999/xlink" width="16pt" height="14.7887pt" viewBox="0 0 16 14.7887" version="1.1">
<g id="surface1">
<path style=" stroke:none;fill-rule:evenodd;fill:rgb(0%,0%,0%);fill-opacity:1;" d="M 1.113281 0 L 0 1.152344 L 2.605469 3.667969 C 1.222656 4.664062 0.371094 6.03125 0.371094 7.535156 C 0.371094 10.589844 3.871094 13.0625 8.1875 13.0625 C 9.457031 13.0625 10.65625 12.847656 11.71875 12.46875 L 14.121094 14.789062 L 15.234375 13.636719 Z M 10.542969 11.332031 L 9.085938 9.925781 C 8.804688 10.03125 8.503906 10.085938 8.1875 10.085938 C 6.777344 10.085938 5.632812 8.945312 5.632812 7.535156 C 5.632812 7.25 5.679688 6.976562 5.765625 6.722656 L 3.59375 4.621094 C 2.457031 5.363281 1.753906 6.382812 1.753906 7.507812 C 1.753906 9.785156 4.621094 11.628906 8.160156 11.628906 C 9.003906 11.628906 9.808594 11.523438 10.542969 11.332031 Z M 7.96875 4.992188 L 10.734375 7.664062 C 10.738281 7.621094 10.738281 7.578125 10.738281 7.535156 C 10.738281 6.125 9.59375 4.984375 8.1875 4.984375 C 8.113281 4.984375 8.039062 4.988281 7.96875 4.992188 Z M 14.566406 7.507812 C 14.566406 8.46875 14.054688 9.347656 13.203125 10.050781 L 14.230469 11.039062 C 15.335938 10.085938 16 8.867188 16 7.535156 C 16 4.484375 12.5 2.007812 8.1875 2.007812 C 7.160156 2.007812 6.179688 2.148438 5.285156 2.402344 L 6.460938 3.535156 C 7 3.441406 7.570312 3.390625 8.160156 3.390625 C 11.695312 3.390625 14.566406 5.234375 14.566406 7.507812 Z M 14.566406 7.507812 "/>
</g>
</svg>
