<?xml version="1.0" encoding="UTF-8"?>
<svg xmlns="http://www.w3.org/2000/svg" xmlns:xlink="http://www.w3.org/1999/xlink" width="22pt" height="22pt" viewBox="0 0 22 22" version="1.1">
<defs>
<clipPath id="clip1">
  <path d="M 11 0 C 17.074219 0 22 4.925781 22 11 C 22 11.835938 21.898438 12.652344 21.722656 13.4375 C 21.269531 13.121094 20.769531 12.875 20.238281 12.695312 C 20.140625 12.660156 20.039062 12.636719 19.941406 12.609375 C 19.769531 12.558594 19.597656 12.519531 19.421875 12.484375 C 19.332031 12.46875 19.242188 12.449219 19.152344 12.4375 C 18.882812 12.402344 18.613281 12.375 18.332031 12.375 C 18.128906 12.375 17.929688 12.386719 17.730469 12.40625 C 17.5625 12.421875 17.398438 12.449219 17.234375 12.480469 C 17.207031 12.484375 17.175781 12.488281 17.144531 12.496094 C 16.761719 12.570312 16.394531 12.6875 16.042969 12.832031 L 2.960938 12.832031 C 3.796875 16.5 7.082031 19.25 11 19.25 C 11.488281 19.25 11.96875 19.207031 12.433594 19.125 L 12.46875 19.34375 C 12.492188 19.492188 12.523438 19.632812 12.5625 19.777344 C 12.578125 19.851562 12.601562 19.921875 12.625 19.992188 C 12.660156 20.125 12.703125 20.257812 12.75 20.386719 C 12.792969 20.503906 12.839844 20.613281 12.890625 20.726562 C 13.042969 21.074219 13.21875 21.410156 13.433594 21.71875 C 12.652344 21.898438 11.835938 22 11 22 C 4.925781 22 0 17.074219 0 11 C 0 4.925781 4.925781 0 11 0 Z M 19.25 14.667969 L 19.25 17.417969 L 22 17.417969 L 22 19.25 L 19.25 19.25 L 19.25 22 L 17.417969 22 L 17.417969 19.25 L 14.667969 19.25 L 14.667969 17.417969 L 17.417969 17.417969 L 17.417969 14.667969 Z M 7.332031 6.417969 C 6.320312 6.417969 5.5 7.238281 5.5 8.25 C 5.5 9.261719 6.320312 10.082031 7.332031 10.082031 C 8.34375 10.082031 9.167969 9.261719 9.167969 8.25 C 9.167969 7.238281 8.34375 6.417969 7.332031 6.417969 Z M 14.667969 6.417969 C 13.652344 6.417969 12.832031 7.238281 12.832031 8.25 C 12.832031 9.261719 13.652344 10.082031 14.667969 10.082031 C 15.679688 10.082031 16.5 9.261719 16.5 8.25 C 16.5 7.238281 15.679688 6.417969 14.667969 6.417969 Z M 14.667969 6.417969 "/>
</clipPath>
</defs>
<g id="surface1">
<g clip-path="url(#clip1)" clip-rule="nonzero">
<rect x="0" y="0" width="22" height="22" style="fill:rgb(0%,0%,0%);fill-opacity:1;stroke:none;"/>
</g>
</g>
</svg>
