<?xml version="1.0" encoding="UTF-8"?>
<svg xmlns="http://www.w3.org/2000/svg" xmlns:xlink="http://www.w3.org/1999/xlink" width="19.99048pt" height="19.99048pt" viewBox="0 0 19.99048 19.99048" version="1.1">
<g id="surface1">
<path style=" stroke:none;fill-rule:nonzero;fill:rgb(0%,0%,0%);fill-opacity:1;" d="M 2.925781 2.925781 C -0.976562 6.824219 -0.972656 13.167969 2.925781 17.066406 C 6.824219 20.964844 13.167969 20.964844 17.066406 17.066406 C 20.964844 13.167969 20.964844 6.824219 17.066406 2.925781 C 13.167969 -0.976562 6.824219 -0.976562 2.925781 2.925781 Z M 5.457031 2.933594 C 8.242188 1.144531 11.863281 1.164062 14.628906 2.996094 L 12.234375 5.394531 C 10.867188 4.765625 9.285156 4.769531 7.921875 5.402344 Z M 2.882812 5.539062 L 5.375 8.03125 C 4.808594 9.359375 4.824219 10.878906 5.429688 12.195312 L 2.996094 14.628906 C 1.179688 11.890625 1.144531 8.3125 2.882812 5.539062 Z M 14.453125 17.105469 C 11.769531 18.789062 8.335938 18.808594 5.636719 17.167969 L 8.046875 14.753906 C 9.339844 15.3125 10.8125 15.316406 12.105469 14.761719 Z M 7.597656 12.542969 C 6.222656 11.167969 6.222656 8.933594 7.597656 7.558594 C 8.96875 6.1875 11.203125 6.1875 12.578125 7.558594 C 13.949219 8.933594 13.949219 11.167969 12.578125 12.539062 C 11.203125 13.914062 8.96875 13.914062 7.597656 12.542969 Z M 17.054688 14.535156 L 14.734375 12.214844 C 15.351562 10.886719 15.367188 9.351562 14.789062 8.011719 L 17.167969 5.636719 C 18.824219 8.363281 18.789062 11.839844 17.054688 14.535156 Z M 17.054688 14.535156 "/>
</g>
</svg>
