<?xml version="1.0" encoding="UTF-8"?>
<svg xmlns="http://www.w3.org/2000/svg" xmlns:xlink="http://www.w3.org/1999/xlink" width="23pt" height="23pt" viewBox="0 0 23 23" version="1.1">
<defs>
<clipPath id="clip1">
  <path d="M 18.410156 0.375 C 20.628906 0.617188 22.382812 2.371094 22.625 4.589844 C 23.125 9.183594 23.125 13.816406 22.625 18.410156 C 22.382812 20.628906 20.628906 22.382812 18.410156 22.625 C 13.816406 23.125 9.183594 23.125 4.589844 22.625 C 2.371094 22.382812 0.617188 20.628906 0.375 18.410156 C -0.125 13.816406 -0.125 9.183594 0.375 4.589844 C 0.617188 2.371094 2.371094 0.617188 4.589844 0.375 C 9.183594 -0.125 13.816406 -0.125 18.410156 0.375 Z M 5.730469 2.210938 C 3.878906 2.414062 2.414062 3.878906 2.210938 5.730469 C 1.792969 9.566406 1.792969 13.433594 2.210938 17.269531 C 2.414062 19.121094 3.878906 20.585938 5.730469 20.789062 C 9.566406 21.207031 13.433594 21.207031 17.269531 20.789062 C 19.121094 20.585938 20.585938 19.121094 20.789062 17.269531 C 21.207031 13.433594 21.207031 9.566406 20.789062 5.730469 C 20.585938 3.878906 19.121094 2.414062 17.269531 2.210938 C 13.433594 1.792969 9.566406 1.792969 5.730469 2.210938 Z M 12.53125 4.964844 L 12.53125 10.496094 L 18.0625 10.496094 L 18.0625 12.53125 L 12.53125 12.53125 L 12.53125 18.0625 L 10.496094 18.0625 L 10.496094 12.53125 L 4.964844 12.53125 L 4.964844 10.496094 L 10.496094 10.496094 L 10.496094 4.964844 Z M 12.53125 4.964844 "/>
</clipPath>
</defs>
<g id="surface1">
<g clip-path="url(#clip1)" clip-rule="nonzero">
<rect x="0" y="0" width="23" height="23" style="fill:rgb(0%,0%,0%);fill-opacity:1;stroke:none;"/>
</g>
</g>
</svg>
