<?xml version="1.0" encoding="UTF-8"?>
<svg xmlns="http://www.w3.org/2000/svg" xmlns:xlink="http://www.w3.org/1999/xlink" width="24.22461pt" height="21.69214pt" viewBox="0 0 24.22461 21.69214" version="1.1">
<defs>
<clipPath id="clip1">
  <path d="M 0 0 L 24.226562 0 L 24.226562 21.691406 L 0 21.691406 Z M 0 0 "/>
</clipPath>
</defs>
<g id="surface1">
<g clip-path="url(#clip1)" clip-rule="nonzero">
<path style=" stroke:none;fill-rule:nonzero;fill:rgb(100%,100%,100%);fill-opacity:1;" d="M 12.113281 0 C 8.898438 0 5.820312 1.0625 3.546875 2.953125 C 1.277344 4.847656 0 7.414062 0 10.089844 C 0.00390625 11.828125 0.546875 13.539062 1.578125 15.054688 C 2.609375 16.566406 4.09375 17.832031 5.882812 18.726562 C 5.40625 19.796875 4.691406 20.796875 3.765625 21.691406 C 5.558594 21.378906 7.242188 20.714844 8.6875 19.757812 C 9.796875 20.035156 10.953125 20.175781 12.113281 20.175781 C 15.324219 20.175781 18.40625 19.113281 20.675781 17.222656 C 22.949219 15.332031 24.222656 12.765625 24.222656 10.089844 C 24.222656 7.414062 22.949219 4.847656 20.675781 2.953125 C 18.40625 1.0625 15.324219 0 12.113281 0 Z M 12.113281 0 "/>
</g>
</g>
</svg>
