<?xml version="1.0" encoding="UTF-8"?>
<svg xmlns="http://www.w3.org/2000/svg" xmlns:xlink="http://www.w3.org/1999/xlink" width="20.58008pt" height="23.83643pt" viewBox="0 0 20.58008 23.83643" version="1.1">
<defs>
<clipPath id="clip1">
  <path d="M 0 0 L 20.582031 0 L 20.582031 23.835938 L 0 23.835938 Z M 0 0 "/>
</clipPath>
</defs>
<g id="surface1">
<g clip-path="url(#clip1)" clip-rule="nonzero">
<path style=" stroke:none;fill-rule:evenodd;fill:rgb(0%,0%,0%);fill-opacity:1;" d="M 10.289062 11 C 7.25 11 4.789062 8.542969 4.789062 5.511719 C 4.789062 2.480469 7.25 0 10.289062 0 C 13.328125 0 15.789062 2.457031 15.789062 5.488281 C 15.789062 8.519531 13.328125 11 10.289062 11 Z M 10.289062 2 C 8.355469 2 6.789062 3.570312 6.789062 5.511719 C 6.789062 7.453125 8.355469 9 10.289062 9 C 12.222656 9 13.789062 7.429688 13.789062 5.488281 C 13.789062 3.546875 12.222656 2 10.289062 2 Z M 18.558594 23.835938 L 20.578125 23.835938 C 20.578125 17.945312 15.960938 13.144531 10.289062 13.144531 C 4.621094 13.144531 0 17.945312 0 23.835938 L 2.019531 23.835938 C 2.019531 19.089844 5.722656 15.246094 10.289062 15.246094 C 14.859375 15.246094 18.558594 19.089844 18.558594 23.835938 Z M 18.558594 23.835938 "/>
</g>
</g>
</svg>
