<?xml version="1.0" encoding="UTF-8"?>
<svg xmlns="http://www.w3.org/2000/svg" xmlns:xlink="http://www.w3.org/1999/xlink" width="80pt" height="80pt" viewBox="0 0 80 80" version="1.1">
<g id="surface1">
<path style=" stroke:none;fill-rule:evenodd;fill:rgb(0%,0%,0%);fill-opacity:1;" d="M 77.5 40 C 77.5 60.710938 60.710938 77.5 40 77.5 C 19.289062 77.5 2.5 60.710938 2.5 40 C 2.5 19.289062 19.289062 2.5 40 2.5 C 60.710938 2.5 77.5 19.289062 77.5 40 Z M 80 40 C 80 62.089844 62.089844 80 40 80 C 17.910156 80 0 62.089844 0 40 C 0 17.910156 17.910156 0 40 0 C 62.089844 0 80 17.910156 80 40 Z M 32.609375 29.378906 C 32.609375 33.4375 35.902344 36.722656 39.972656 36.722656 C 44.039062 36.722656 47.335938 33.40625 47.335938 29.34375 C 47.335938 25.285156 44.039062 22 39.972656 22 C 35.902344 22 32.609375 25.320312 32.609375 29.378906 Z M 35.289062 29.378906 C 35.289062 26.78125 37.382812 24.675781 39.972656 24.675781 C 42.5625 24.675781 44.65625 26.75 44.65625 29.347656 C 44.65625 31.945312 42.5625 34.046875 39.972656 34.046875 C 37.382812 34.046875 35.289062 31.976562 35.289062 29.378906 Z M 53.746094 53.90625 L 51.042969 53.90625 C 51.042969 47.554688 46.085938 42.40625 39.972656 42.40625 C 33.859375 42.40625 28.90625 47.554688 28.90625 53.90625 L 26.199219 53.90625 C 26.199219 46.019531 32.382812 39.59375 39.972656 39.59375 C 47.5625 39.59375 53.746094 46.019531 53.746094 53.90625 Z M 53.746094 53.90625 "/>
</g>
</svg>
