<?xml version="1.0" encoding="UTF-8"?>
<svg xmlns="http://www.w3.org/2000/svg" xmlns:xlink="http://www.w3.org/1999/xlink" width="25pt" height="22pt" viewBox="0 0 25 22" version="1.1">
<defs>
<clipPath id="clip1">
  <path d="M 1 1 L 24 1 L 24 21 L 1 21 Z M 1 1 "/>
</clipPath>
<clipPath id="clip2">
  <path d="M 20.703125 2.042969 C 15.726562 -0.984375 12.5 3.542969 12.5 3.542969 C 12.5 3.542969 9.273438 -0.984375 4.296875 2.042969 C -0.675781 5.074219 1.070312 10.445312 2.515625 12.660156 C 3.960938 14.875 5.910156 17.253906 12.5 21 C 19.089844 17.253906 21.039062 14.875 22.484375 12.660156 C 23.929688 10.445312 25.675781 5.074219 20.703125 2.042969 Z M 20.703125 2.042969 "/>
</clipPath>
</defs>
<g id="surface1">
<g clip-path="url(#clip1)" clip-rule="nonzero">
<g clip-path="url(#clip2)" clip-rule="nonzero">
<rect x="0" y="0" width="25" height="22" style="fill:rgb(0%,0%,0%);fill-opacity:1;stroke:none;"/>
</g>
</g>
<path style="fill:none;stroke-width:1.8;stroke-linecap:butt;stroke-linejoin:miter;stroke:rgb(0%,0%,0%);stroke-opacity:1;stroke-miterlimit:10;" d="M 19.703125 1.042969 C 14.726562 -1.984375 11.5 2.542969 11.5 2.542969 C 11.5 2.542969 8.273438 -1.984375 3.296875 1.042969 C -1.675781 4.074219 0.0703125 9.445312 1.515625 11.660156 C 2.960938 13.875 4.910156 16.253906 11.5 20 C 18.089844 16.253906 20.039062 13.875 21.484375 11.660156 C 22.929688 9.445312 24.675781 4.074219 19.703125 1.042969 Z M 19.703125 1.042969 " transform="matrix(1,0,0,1,1,1)"/>
</g>
</svg>
