<?xml version="1.0" encoding="UTF-8"?>
<svg xmlns="http://www.w3.org/2000/svg" xmlns:xlink="http://www.w3.org/1999/xlink" width="14.1001pt" height="20pt" viewBox="0 0 14.1001 20" version="1.1">
<g id="surface1">
<path style=" stroke:none;fill-rule:nonzero;fill:rgb(0%,0%,0%);fill-opacity:1;" d="M 14 20 L 14 8 L 12 8 L 12 5.601562 C 12 2.300781 10.199219 0 7 0 C 3.699219 0 2 2.300781 2 5.601562 L 2 8 L 0 8 L 0 20 L 14.101562 20 Z M 7 16.601562 C 5.601562 16.601562 4.398438 15.5 4.398438 14 C 4.398438 12.5 5.5 11.398438 7 11.398438 C 8.5 11.398438 9.601562 12.5 9.601562 14 C 9.601562 15.5 8.398438 16.601562 7 16.601562 Z M 10 8 L 4 8 L 4 5.601562 C 4 4 4.800781 2.101562 7 2.101562 C 9.199219 2.101562 10 3.898438 10 5.601562 Z M 10 8 "/>
</g>
</svg>
