<?xml version="1.0" encoding="UTF-8"?>
<svg xmlns="http://www.w3.org/2000/svg" xmlns:xlink="http://www.w3.org/1999/xlink" width="25pt" height="24pt" viewBox="0 0 25 24" version="1.1">
<defs>
<clipPath id="clip1">
  <path d="M 1 1 L 24 1 L 24 24 L 1 24 Z M 1 1 "/>
</clipPath>
<clipPath id="clip2">
  <path d="M 11.199219 21.394531 C 13.621094 21.398438 15.964844 20.539062 17.808594 18.96875 L 22.835938 24 L 24 22.835938 L 18.96875 17.808594 C 22.378906 13.804688 22.195312 7.765625 18.414062 3.984375 C 14.433594 0.00390625 7.960938 0.00390625 3.984375 3.984375 C 0.00390625 7.960938 0.00390625 14.433594 3.984375 18.414062 C 5.894531 20.328125 8.492188 21.402344 11.199219 21.394531 Z M 5.144531 5.144531 C 8.492188 1.808594 13.90625 1.808594 17.25 5.144531 C 20.585938 8.484375 20.585938 13.914062 17.25 17.25 C 13.90625 20.585938 8.492188 20.585938 5.144531 17.25 C 1.808594 13.914062 1.808594 8.484375 5.144531 5.144531 Z M 5.144531 5.144531 "/>
</clipPath>
</defs>
<g id="surface1">
<g clip-path="url(#clip1)" clip-rule="nonzero">
<g clip-path="url(#clip2)" clip-rule="nonzero">
<rect x="0" y="0" width="25" height="24" style="fill:rgb(0%,0%,0%);fill-opacity:1;stroke:none;"/>
</g>
</g>
<path style="fill:none;stroke-width:1;stroke-linecap:butt;stroke-linejoin:miter;stroke:rgb(0%,0%,0%);stroke-opacity:1;stroke-miterlimit:10;" d="M 10.199219 20.394531 C 12.621094 20.398438 14.964844 19.539062 16.808594 17.96875 L 21.835938 23 L 23 21.835938 L 17.96875 16.808594 C 21.378906 12.804688 21.195312 6.765625 17.414062 2.984375 C 13.433594 -0.996094 6.960938 -0.996094 2.984375 2.984375 C -0.996094 6.960938 -0.996094 13.433594 2.984375 17.414062 C 4.894531 19.328125 7.492188 20.402344 10.199219 20.394531 Z M 4.144531 4.144531 C 7.492188 0.808594 12.90625 0.808594 16.25 4.144531 C 19.585938 7.484375 19.585938 12.914062 16.25 16.25 C 12.90625 19.585938 7.492188 19.585938 4.144531 16.25 C 0.808594 12.914062 0.808594 7.484375 4.144531 4.144531 Z M 4.144531 4.144531 " transform="matrix(1,0,0,1,1,1)"/>
</g>
</svg>
