<?xml version="1.0" encoding="UTF-8"?>
<svg xmlns="http://www.w3.org/2000/svg" xmlns:xlink="http://www.w3.org/1999/xlink" width="21pt" height="21pt" viewBox="0 0 21 21" version="1.1">
<defs>
<clipPath id="clip1">
  <path d="M 0 0 L 3.808594 0 L 3.808594 3.808594 L 0 3.808594 Z M 17.191406 0 L 21 0 L 21 3.808594 L 17.191406 3.808594 Z M 8.59375 0 L 12.40625 0 L 12.40625 3.808594 L 8.59375 3.808594 Z M 0 8.59375 L 3.808594 8.59375 L 3.808594 12.40625 L 0 12.40625 Z M 17.191406 8.59375 L 21 8.59375 L 21 12.40625 L 17.191406 12.40625 Z M 8.59375 8.59375 L 12.40625 8.59375 L 12.40625 12.40625 L 8.59375 12.40625 Z M 0 17.191406 L 3.808594 17.191406 L 3.808594 21 L 0 21 Z M 17.191406 17.191406 L 21 17.191406 L 21 21 L 17.191406 21 Z M 8.59375 17.191406 L 12.40625 17.191406 L 12.40625 21 L 8.59375 21 Z M 8.59375 17.191406 "/>
</clipPath>
</defs>
<g id="surface1">
<g clip-path="url(#clip1)" clip-rule="nonzero">
<rect x="0" y="0" width="21" height="21" style="fill:rgb(0%,0%,0%);fill-opacity:1;stroke:none;"/>
</g>
</g>
</svg>
