<?xml version="1.0" encoding="UTF-8"?>
<svg xmlns="http://www.w3.org/2000/svg" xmlns:xlink="http://www.w3.org/1999/xlink" width="30pt" height="24pt" viewBox="0 0 30 24" version="1.1">
<g id="surface1">
<path style="fill:none;stroke-width:1.8;stroke-linecap:butt;stroke-linejoin:miter;stroke:rgb(0%,0%,0%);stroke-opacity:1;stroke-miterlimit:10;" d="M 0 22 C 0 21.6875 0 21.339844 0 20.953125 L 0 4.03125 L 6.222656 4.03125 L 10.21875 0 L 17.78125 0 L 21.777344 4.03125 L 28 4.03125 C 28 4.34375 28 4.691406 28 5.078125 L 28 20.953125 C 28 21.339844 28 21.6875 28 22 Z M 14.046875 6.863281 C 11.257812 6.863281 9 9.121094 9 11.90625 C 9 14.691406 11.257812 16.949219 14.046875 16.949219 C 16.832031 16.949219 19.089844 14.691406 19.089844 11.90625 C 19.089844 9.121094 16.832031 6.863281 14.046875 6.863281 Z M 14.046875 6.863281 " transform="matrix(1,0,0,1,1,1)"/>
</g>
</svg>
