<?xml version="1.0" encoding="UTF-8"?>
<svg xmlns="http://www.w3.org/2000/svg" xmlns:xlink="http://www.w3.org/1999/xlink" width="22pt" height="22pt" viewBox="0 0 22 22" version="1.1">
<g id="surface1">
<path style=" stroke:none;fill-rule:nonzero;fill:rgb(100%,100%,100%);fill-opacity:1;" d="M 3.894531 16.40625 L 4.785156 17.289062 L 4.78125 17.292969 C 5.925781 18.417969 7.363281 19.195312 8.933594 19.570312 L 9.015625 19.589844 L 10.144531 19.871094 L 9.609375 22 L 8.601562 21.773438 C 8.574219 21.769531 8.542969 21.765625 8.511719 21.757812 C 8.472656 21.746094 8.429688 21.738281 8.390625 21.726562 L 8.386719 21.726562 C 6.398438 21.242188 4.558594 20.203125 3.117188 18.738281 C 3.105469 18.730469 3.097656 18.722656 3.089844 18.710938 L 2.332031 17.960938 Z M 10.921875 0 C 16.085938 0.0078125 20.570312 3.554688 21.71875 8.570312 C 23.066406 14.414062 19.429688 20.28125 13.570312 21.679688 L 13.398438 21.71875 L 13.414062 21.714844 L 13.417969 21.71875 L 12.316406 21.992188 L 12.058594 20.976562 C 12.050781 20.941406 12.039062 20.90625 12.03125 20.871094 C 12.03125 20.867188 12.03125 20.867188 12.03125 20.863281 L 11.777344 19.855469 L 12.816406 19.597656 C 12.832031 19.59375 12.847656 19.589844 12.859375 19.585938 L 12.878906 19.582031 L 12.890625 19.578125 C 16.894531 18.679688 19.742188 15.1875 19.769531 11.160156 L 19.769531 11.039062 C 19.769531 6.214844 15.890625 2.308594 11.058594 2.230469 L 9.789062 2.230469 L 9.789062 0 Z M 12.058594 5.703125 L 12.058594 9.957031 L 16.339844 9.957031 L 16.339844 12.242188 L 12.058594 12.242188 L 12.058594 16.5 L 9.757812 16.5 L 9.757812 12.242188 L 5.476562 12.242188 L 5.476562 9.957031 L 9.757812 9.957031 L 9.757812 5.703125 Z M 2.210938 10.003906 L 2.210938 11.03125 C 2.210938 11.058594 2.210938 11.085938 2.210938 11.117188 C 2.210938 12.199219 2.417969 13.253906 2.800781 14.28125 C 2.816406 14.3125 2.828125 14.347656 2.835938 14.378906 L 3.183594 15.34375 L 1.113281 16.113281 L 0.675781 14.941406 C 0.230469 13.761719 0.0117188 12.507812 0 11.253906 L 0 10.003906 Z M 1.960938 4.816406 L 3.882812 5.832031 L 2.558594 8.308594 L 0.632812 7.292969 Z M 1.960938 4.816406 "/>
</g>
</svg>
