<?xml version="1.0" encoding="UTF-8"?>
<svg xmlns="http://www.w3.org/2000/svg" xmlns:xlink="http://www.w3.org/1999/xlink" width="32.2998pt" height="19.45801pt" viewBox="0 0 32.2998 19.45801" version="1.1">
<defs>
<clipPath id="clip1">
  <path d="M 0 0 L 32.300781 0 L 32.300781 19.457031 L 0 19.457031 Z M 0 0 "/>
</clipPath>
</defs>
<g id="surface1">
<g clip-path="url(#clip1)" clip-rule="nonzero">
<path style=" stroke:none;fill-rule:evenodd;fill:rgb(0%,0%,0%);fill-opacity:1;" d="M 13.621094 13.980469 L 12.648438 19.457031 L 0 19.457031 L 3.445312 0 L 29.464844 0 C 30.390625 0 31.09375 0.214844 31.578125 0.640625 C 32.058594 1.066406 32.300781 1.6875 32.300781 2.5 C 32.300781 2.742188 32.273438 3.019531 32.214844 3.335938 L 30.910156 10.644531 C 30.707031 11.738281 30.269531 12.570312 29.605469 13.132812 C 28.9375 13.699219 28.066406 13.980469 26.992188 13.980469 Z M 14.621094 8.3125 L 16.621094 8.3125 C 16.882812 8.3125 17.101562 8.238281 17.277344 8.089844 C 17.453125 7.941406 17.558594 7.738281 17.597656 7.476562 L 17.761719 6.53125 C 17.78125 6.476562 17.789062 6.402344 17.789062 6.308594 C 17.789062 5.902344 17.558594 5.699219 17.09375 5.699219 L 15.09375 5.699219 Z M 14.621094 8.3125 "/>
</g>
</g>
</svg>
