<?xml version="1.0" encoding="UTF-8"?>
<svg xmlns="http://www.w3.org/2000/svg" xmlns:xlink="http://www.w3.org/1999/xlink" width="23.9707pt" height="23.9707pt" viewBox="0 0 23.9707 23.9707" version="1.1">
<defs>
<clipPath id="clip1">
  <path d="M 0 0 L 23.96875 0 L 23.96875 23.96875 L 0 23.96875 Z M 0 0 "/>
</clipPath>
</defs>
<g id="surface1">
<g clip-path="url(#clip1)" clip-rule="nonzero">
<path style=" stroke:none;fill-rule:evenodd;fill:rgb(100%,100%,100%);fill-opacity:1;" d="M 12.269531 0 C 15.265625 0 15.6875 0.015625 16.925781 0.0703125 C 18.203125 0.128906 19.074219 0.332031 19.835938 0.628906 C 20.625 0.933594 21.292969 1.34375 21.960938 2.011719 C 22.625 2.679688 23.035156 3.347656 23.339844 4.132812 C 23.636719 4.898438 23.839844 5.769531 23.898438 7.042969 C 23.957031 8.296875 23.96875 8.714844 23.972656 11.792969 L 23.972656 12.175781 C 23.96875 15.257812 23.957031 15.675781 23.898438 16.925781 C 23.839844 18.203125 23.636719 19.074219 23.339844 19.835938 C 23.035156 20.625 22.625 21.292969 21.960938 21.960938 C 21.292969 22.625 20.625 23.035156 19.835938 23.339844 C 19.074219 23.636719 18.203125 23.839844 16.925781 23.898438 C 15.675781 23.957031 15.257812 23.96875 12.175781 23.972656 L 11.792969 23.972656 C 8.714844 23.96875 8.296875 23.957031 7.042969 23.898438 C 5.769531 23.839844 4.898438 23.636719 4.132812 23.339844 C 3.347656 23.035156 2.679688 22.625 2.011719 21.960938 C 1.34375 21.292969 0.933594 20.625 0.628906 19.835938 C 0.332031 19.074219 0.128906 18.203125 0.0703125 16.925781 C 0.015625 15.6875 0 15.265625 0 12.269531 L 0 11.699219 C 0 8.703125 0.015625 8.285156 0.0703125 7.042969 C 0.128906 5.769531 0.332031 4.898438 0.628906 4.132812 C 0.933594 3.347656 1.34375 2.679688 2.011719 2.011719 C 2.679688 1.34375 3.347656 0.933594 4.132812 0.628906 C 4.898438 0.332031 5.769531 0.128906 7.042969 0.0703125 C 8.285156 0.015625 8.703125 0 11.699219 0 Z M 12.175781 2.160156 L 11.796875 2.160156 C 8.769531 2.160156 8.378906 2.171875 7.140625 2.230469 C 5.972656 2.28125 5.339844 2.476562 4.917969 2.640625 C 4.355469 2.859375 3.957031 3.121094 3.539062 3.539062 C 3.121094 3.957031 2.859375 4.355469 2.640625 4.917969 C 2.476562 5.339844 2.28125 5.972656 2.230469 7.140625 C 2.171875 8.378906 2.160156 8.769531 2.160156 11.796875 L 2.160156 12.175781 C 2.160156 15.199219 2.171875 15.589844 2.230469 16.828125 C 2.28125 17.996094 2.476562 18.632812 2.640625 19.054688 C 2.859375 19.613281 3.121094 20.011719 3.539062 20.433594 C 3.957031 20.851562 4.355469 21.109375 4.917969 21.328125 C 5.339844 21.492188 5.972656 21.6875 7.140625 21.742188 C 8.378906 21.796875 8.769531 21.8125 11.796875 21.8125 L 12.175781 21.8125 C 15.203125 21.8125 15.589844 21.796875 16.828125 21.742188 C 17.996094 21.6875 18.632812 21.492188 19.054688 21.328125 C 19.613281 21.109375 20.011719 20.851562 20.433594 20.433594 C 20.851562 20.011719 21.109375 19.613281 21.328125 19.054688 C 21.492188 18.632812 21.6875 17.996094 21.742188 16.828125 C 21.796875 15.589844 21.8125 15.199219 21.8125 12.175781 L 21.8125 11.796875 C 21.8125 8.769531 21.796875 8.378906 21.742188 7.140625 C 21.6875 5.972656 21.492188 5.339844 21.328125 4.917969 C 21.109375 4.355469 20.851562 3.957031 20.433594 3.539062 C 20.011719 3.121094 19.613281 2.859375 19.054688 2.640625 C 18.632812 2.476562 17.996094 2.28125 16.828125 2.230469 C 15.589844 2.171875 15.199219 2.160156 12.175781 2.160156 Z M 11.984375 5.832031 C 15.382812 5.832031 18.140625 8.585938 18.140625 11.984375 C 18.140625 15.382812 15.382812 18.140625 11.984375 18.140625 C 8.585938 18.140625 5.832031 15.382812 5.832031 11.984375 C 5.832031 8.585938 8.585938 5.832031 11.984375 5.832031 Z M 11.984375 7.988281 C 9.777344 7.988281 7.992188 9.777344 7.992188 11.984375 C 7.992188 14.191406 9.777344 15.980469 11.984375 15.980469 C 14.191406 15.980469 15.980469 14.191406 15.980469 11.984375 C 15.980469 9.777344 14.191406 7.988281 11.984375 7.988281 Z M 18.382812 4.148438 C 19.175781 4.148438 19.820312 4.792969 19.820312 5.585938 C 19.820312 6.382812 19.175781 7.027344 18.382812 7.027344 C 17.589844 7.027344 16.945312 6.382812 16.945312 5.585938 C 16.945312 4.792969 17.589844 4.148438 18.382812 4.148438 Z M 18.382812 4.148438 "/>
</g>
</g>
</svg>
