<?xml version="1.0" encoding="UTF-8"?>
<svg xmlns="http://www.w3.org/2000/svg" xmlns:xlink="http://www.w3.org/1999/xlink" width="20pt" height="20pt" viewBox="0 0 20 20" version="1.1">
<g id="surface1">
<path style=" stroke:none;fill-rule:nonzero;fill:rgb(0%,0%,0%);fill-opacity:1;" d="M 10 0 L 13.390625 3.332031 L 17.175781 3.332031 C 18.15625 3.332031 18.515625 3.433594 18.871094 3.621094 C 19.230469 3.8125 19.515625 4.089844 19.707031 4.441406 C 19.898438 4.792969 20 5.144531 20 6.109375 L 20 17.222656 C 20 18.1875 19.898438 18.539062 19.707031 18.890625 C 19.515625 19.246094 19.230469 19.523438 18.871094 19.710938 C 18.515625 19.898438 18.15625 20 17.175781 20 L 2.824219 20 C 1.84375 20 1.484375 19.898438 1.128906 19.710938 C 0.769531 19.523438 0.488281 19.246094 0.292969 18.890625 C 0.101562 18.539062 0 18.1875 0 17.222656 L 0 6.109375 C 0 5.144531 0.101562 4.792969 0.292969 4.441406 C 0.488281 4.089844 0.769531 3.8125 1.128906 3.621094 C 1.484375 3.433594 1.84375 3.332031 2.824219 3.332031 L 6.609375 3.332031 Z M 12.445312 7.390625 L 10 9.835938 L 7.554688 7.390625 L 6.085938 8.859375 L 8.53125 11.304688 L 6.085938 13.75 L 7.554688 15.21875 L 10 12.773438 L 12.445312 15.21875 L 13.914062 13.75 L 11.46875 11.304688 L 13.914062 8.859375 Z M 12.445312 7.390625 "/>
</g>
</svg>
