<?xml version="1.0" encoding="UTF-8"?>
<svg xmlns="http://www.w3.org/2000/svg" xmlns:xlink="http://www.w3.org/1999/xlink" width="32.40771pt" height="20.09961pt" viewBox="0 0 32.40771 20.09961" version="1.1">
<defs>
<clipPath id="clip1">
  <path d="M 0 0 L 32.40625 0 L 32.40625 20.101562 L 0 20.101562 Z M 0 0 "/>
</clipPath>
</defs>
<g id="surface1">
<g clip-path="url(#clip1)" clip-rule="nonzero">
<path style=" stroke:none;fill-rule:nonzero;fill:rgb(0%,0%,0%);fill-opacity:1;" d="M 12.972656 19.25 L 12.972656 20.101562 L 13.6875 20.101562 L 13.8125 19.398438 Z M 13.894531 14.070312 L 13.894531 13.222656 L 13.179688 13.222656 L 13.058594 13.921875 Z M 30.242188 10.917969 L 31.078125 11.074219 L 31.082031 11.066406 Z M 31.480469 4.003906 L 32.316406 4.152344 Z M 4.273438 0.851562 L 4.273438 0 L 3.558594 0 L 3.4375 0.703125 Z M 1.015625 19.25 L 0.175781 19.101562 L 0 20.101562 L 1.015625 20.101562 Z M 13.8125 19.398438 L 14.730469 14.21875 L 13.058594 13.921875 L 12.136719 19.101562 Z M 13.894531 14.921875 L 26.535156 14.921875 L 26.535156 13.222656 L 13.894531 13.222656 Z M 26.535156 14.921875 C 27.707031 14.921875 28.738281 14.609375 29.558594 13.917969 L 28.457031 12.621094 C 28.015625 12.996094 27.398438 13.222656 26.535156 13.222656 Z M 29.558594 13.917969 C 30.375 13.226562 30.859375 12.246094 31.078125 11.074219 L 29.40625 10.761719 C 29.242188 11.65625 28.902344 12.242188 28.457031 12.621094 Z M 31.082031 11.066406 L 32.316406 4.152344 L 30.640625 3.855469 L 29.40625 10.765625 Z M 32.316406 4.152344 C 32.375 3.820312 32.40625 3.503906 32.40625 3.214844 L 30.707031 3.214844 C 30.707031 3.378906 30.6875 3.59375 30.640625 3.855469 Z M 32.40625 3.214844 C 32.40625 2.269531 32.121094 1.421875 31.4375 0.816406 L 30.3125 2.089844 C 30.539062 2.292969 30.707031 2.617188 30.707031 3.214844 Z M 31.4375 0.816406 C 30.769531 0.226562 29.871094 0 28.875 0 L 28.875 1.699219 C 29.636719 1.699219 30.066406 1.875 30.3125 2.089844 Z M 28.875 0 L 4.273438 0 L 4.273438 1.699219 L 28.875 1.699219 Z M 3.4375 0.703125 L 0.175781 19.101562 L 1.851562 19.398438 L 5.109375 0.996094 Z M 1.015625 20.101562 L 12.972656 20.101562 L 12.972656 18.398438 L 1.015625 18.398438 Z M 1.015625 20.101562 "/>
</g>
<path style=" stroke:none;fill-rule:nonzero;fill:rgb(0%,0%,0%);fill-opacity:1;" d="M 16.734375 8.710938 L 14.839844 8.710938 L 15.289062 6.238281 L 17.179688 6.238281 C 17.617188 6.238281 17.835938 6.429688 17.835938 6.816406 C 17.835938 6.902344 17.828125 6.972656 17.8125 7.027344 L 17.652344 7.921875 C 17.617188 8.164062 17.515625 8.359375 17.351562 8.5 C 17.183594 8.640625 16.976562 8.710938 16.734375 8.710938 Z M 16.734375 8.710938 "/>
</g>
</svg>
