<?xml version="1.0" encoding="UTF-8"?>
<svg xmlns="http://www.w3.org/2000/svg" xmlns:xlink="http://www.w3.org/1999/xlink" width="20pt" height="20.40039pt" viewBox="0 0 20 20.40039" version="1.1">
<defs>
<clipPath id="clip1">
  <path d="M 0 0 L 20 0 L 20 20 L 0 20 Z M 0 0 "/>
</clipPath>
<clipPath id="clip2">
  <path d="M 10 0 C 4.488281 0 0 4.484375 0 10 C 0 11.832031 0.5 13.621094 1.453125 15.183594 L 0.117188 19.878906 L 4.816406 18.546875 C 6.378906 19.5 8.167969 20 10 20 C 15.515625 20 20 15.511719 20 10 C 20 4.484375 15.515625 0 10 0 Z M 10 0 "/>
</clipPath>
</defs>
<g id="surface1">
<g clip-path="url(#clip1)" clip-rule="nonzero">
<g clip-path="url(#clip2)" clip-rule="evenodd">
<path style=" stroke:none;fill-rule:nonzero;fill:rgb(0%,0%,0%);fill-opacity:1;" d="M 1.453125 15.183594 L 3.085938 15.648438 L 3.289062 14.933594 L 2.902344 14.300781 Z M 0.117188 19.878906 L -1.519531 19.414062 L -2.351562 22.347656 L 0.578125 21.515625 Z M 4.816406 18.546875 L 5.699219 17.097656 L 5.066406 16.710938 L 4.351562 16.914062 Z M 10 -1.699219 C 3.550781 -1.699219 -1.699219 3.542969 -1.699219 10 L 1.699219 10 C 1.699219 5.421875 5.425781 1.699219 10 1.699219 Z M -1.699219 10 C -1.699219 12.144531 -1.113281 14.238281 0 16.066406 L 2.902344 14.300781 C 2.113281 13.003906 1.699219 11.523438 1.699219 10 Z M -0.183594 14.71875 L -1.519531 19.414062 L 1.75 20.34375 L 3.085938 15.648438 Z M 0.578125 21.515625 L 5.28125 20.183594 L 4.351562 16.914062 L -0.347656 18.246094 Z M 3.933594 20 C 5.761719 21.113281 7.855469 21.699219 10 21.699219 L 10 18.300781 C 8.480469 18.300781 6.996094 17.886719 5.699219 17.097656 Z M 10 21.699219 C 16.457031 21.699219 21.699219 16.449219 21.699219 10 L 18.300781 10 C 18.300781 14.574219 14.578125 18.300781 10 18.300781 Z M 21.699219 10 C 21.699219 3.546875 16.453125 -1.699219 10 -1.699219 L 10 1.699219 C 14.578125 1.699219 18.300781 5.421875 18.300781 10 Z M 21.699219 10 "/>
</g>
</g>
<path style=" stroke:none;fill-rule:nonzero;fill:rgb(0%,0%,0%);fill-opacity:1;" d="M 6.300781 15.398438 Z M 8.894531 12.054688 L 10.90625 12.054688 L 10.90625 11.679688 C 10.996094 10.886719 11.761719 10.269531 12.480469 9.582031 C 13.125 8.949219 13.710938 8.261719 13.710938 7.226562 C 13.710938 5.636719 12.585938 4.523438 10.378906 4.523438 C 8.25 4.523438 6.765625 5.753906 6.675781 7.839844 L 8.761719 7.839844 C 8.863281 6.894531 9.421875 6.296875 10.246094 6.296875 C 11.039062 6.296875 11.398438 6.714844 11.398438 7.40625 C 11.398438 8.003906 10.921875 8.484375 10.378906 9.011719 C 9.675781 9.699219 8.894531 10.433594 8.894531 11.605469 Z M 9.886719 15.535156 C 10.636719 15.535156 11.25 14.964844 11.25 14.246094 C 11.25 13.511719 10.636719 12.941406 9.886719 12.941406 C 9.121094 12.941406 8.503906 13.511719 8.503906 14.246094 C 8.503906 14.964844 9.121094 15.535156 9.886719 15.535156 Z M 9.886719 15.535156 "/>
</g>
</svg>
