<?xml version="1.0" encoding="UTF-8"?>
<svg xmlns="http://www.w3.org/2000/svg" xmlns:xlink="http://www.w3.org/1999/xlink" width="30pt" height="24pt" viewBox="0 0 30 24" version="1.1">
<defs>
<clipPath id="clip1">
  <path d="M 19.050781 0 L 23.046875 4.109375 L 30 4.109375 L 30 24 L 0 24 L 0 4.109375 L 6.953125 4.109375 L 10.949219 0 Z M 15 6.914062 C 11.6875 6.914062 9 9.605469 9 12.925781 C 9 16.246094 11.6875 18.941406 15 18.941406 C 18.3125 18.941406 21 16.246094 21 12.925781 C 21 9.605469 18.3125 6.914062 15 6.914062 Z M 15 8.820312 C 17.265625 8.820312 19.101562 10.65625 19.101562 12.925781 C 19.101562 15.195312 17.265625 17.035156 15 17.035156 C 12.734375 17.035156 10.898438 15.195312 10.898438 12.925781 C 10.898438 10.65625 12.734375 8.820312 15 8.820312 Z M 15 8.820312 "/>
</clipPath>
</defs>
<g id="surface1">
<g clip-path="url(#clip1)" clip-rule="evenodd">
<rect x="0" y="0" width="30" height="24" style="fill:rgb(0%,0%,0%);fill-opacity:1;stroke:none;"/>
</g>
</g>
</svg>
