<?xml version="1.0" encoding="UTF-8"?>
<svg xmlns="http://www.w3.org/2000/svg" xmlns:xlink="http://www.w3.org/1999/xlink" width="20pt" height="20pt" viewBox="0 0 20 20" version="1.1">
<g id="surface1">
<path style=" stroke:none;fill-rule:evenodd;fill:rgb(0%,0%,0%);fill-opacity:1;" d="M 18.351562 10 C 18.351562 14.613281 14.613281 18.351562 10 18.351562 C 5.386719 18.351562 1.648438 14.613281 1.648438 10 C 1.648438 5.386719 5.386719 1.648438 10 1.648438 C 14.613281 1.648438 18.351562 5.386719 18.351562 10 Z M 20 10 C 20 15.523438 15.523438 20 10 20 C 4.476562 20 0 15.523438 0 10 C 0 4.476562 4.476562 0 10 0 C 15.523438 0 20 4.476562 20 10 Z M 9.996094 8.550781 L 7.585938 6.140625 L 6.140625 7.585938 L 8.546875 9.996094 L 6.140625 12.40625 L 7.585938 13.851562 L 9.996094 11.441406 L 12.40625 13.851562 L 13.851562 12.40625 L 11.441406 9.996094 L 13.851562 7.585938 L 12.40625 6.140625 Z M 9.996094 8.550781 "/>
</g>
</svg>
