<?xml version="1.0" encoding="UTF-8"?>
<svg xmlns="http://www.w3.org/2000/svg" xmlns:xlink="http://www.w3.org/1999/xlink" width="15pt" height="14pt" viewBox="0 0 15 14" version="1.1">
<g id="surface1">
<path style=" stroke:none;fill-rule:evenodd;fill:rgb(0%,0%,0%);fill-opacity:1;" d="M 5.8125 0.00390625 C 7.1875 0.0546875 8.339844 1.003906 8.570312 2.398438 C 8.847656 4.007812 8.394531 5.429688 7.417969 6.6875 C 6.890625 7.367188 7.035156 7.957031 7.816406 8.308594 C 8.457031 8.582031 9.082031 8.898438 9.683594 9.253906 C 10.136719 9.535156 10.550781 9.886719 10.902344 10.292969 C 11.105469 10.523438 11.230469 10.808594 11.269531 11.113281 C 11.285156 11.210938 11.285156 11.3125 11.269531 11.414062 C 11.28125 11.480469 11.285156 11.550781 11.28125 11.617188 C 11.28125 11.898438 11.21875 12.171875 11.09375 12.421875 C 10.917969 12.773438 10.640625 13.054688 10.292969 13.226562 C 10.273438 13.238281 10.253906 13.246094 10.230469 13.257812 L 10.21875 13.261719 C 9.257812 13.707031 7.601562 14 5.722656 14 L 5.5625 14 C 3.714844 14 2.085938 13.714844 1.117188 13.285156 L 1.066406 13.261719 L 1.050781 13.257812 C 1.027344 13.246094 1.007812 13.238281 0.988281 13.226562 C 0.644531 13.054688 0.363281 12.773438 0.191406 12.421875 C 0.0664062 12.171875 0 11.898438 0 11.617188 C 0 11.550781 0.00390625 11.480469 0.0117188 11.414062 C -0.00390625 11.3125 -0.00390625 11.210938 0.0117188 11.113281 C 0.0507812 10.808594 0.179688 10.523438 0.378906 10.292969 C 0.734375 9.886719 1.144531 9.535156 1.601562 9.253906 C 2.203125 8.898438 2.824219 8.582031 3.464844 8.308594 C 4.246094 7.957031 4.390625 7.367188 3.863281 6.6875 C 2.886719 5.429688 2.4375 4.007812 2.710938 2.398438 C 2.945312 1.003906 4.097656 0.0546875 5.46875 0.00390625 C 5.527344 0 5.582031 0 5.636719 0 L 5.644531 0 C 5.699219 0 5.757812 0 5.8125 0.00390625 Z M 11.769531 3.242188 L 11.769531 4.9375 L 10.34375 4.9375 C 10.339844 4.9375 10.339844 4.9375 10.335938 4.9375 L 10.121094 4.9375 L 10.121094 6.558594 L 11.769531 6.558594 L 11.769531 8.253906 L 13.347656 8.253906 L 13.347656 6.558594 L 15 6.558594 L 15 4.9375 L 14.78125 4.9375 C 14.78125 4.9375 14.777344 4.9375 14.777344 4.9375 L 13.347656 4.9375 L 13.347656 3.242188 Z M 11.769531 3.242188 "/>
</g>
</svg>
