<?xml version="1.0" encoding="UTF-8"?>
<svg xmlns="http://www.w3.org/2000/svg" xmlns:xlink="http://www.w3.org/1999/xlink" width="23.70019pt" height="21.83887pt" viewBox="0 0 23.70019 21.83887" version="1.1">
<defs>
<clipPath id="clip1">
  <path d="M 0 0 L 23.699219 0 L 23.699219 21.839844 L 0 21.839844 Z M 0 0 "/>
</clipPath>
</defs>
<g id="surface1">
<path style=" stroke:none;fill-rule:evenodd;fill:rgb(0%,0%,0%);fill-opacity:1;" d="M 19.695312 1.894531 C 14.9375 -1.136719 11.851562 3.390625 11.851562 3.390625 C 11.851562 3.390625 8.765625 -1.136719 4.003906 1.894531 C -0.753906 4.921875 0.917969 10.296875 2.300781 12.511719 C 3.683594 14.726562 5.546875 17.105469 11.851562 20.851562 C 18.152344 17.105469 20.015625 14.726562 21.398438 12.511719 C 22.78125 10.296875 24.453125 4.921875 19.695312 1.894531 Z M 19.695312 1.894531 "/>
<g clip-path="url(#clip1)" clip-rule="nonzero">
<path style=" stroke:none;fill-rule:nonzero;fill:rgb(0%,0%,0%);fill-opacity:1;" d="M 19.695312 1.894531 L 20.152344 1.175781 Z M 11.851562 3.390625 L 11.148438 3.871094 L 11.851562 4.902344 L 12.550781 3.871094 Z M 4.003906 1.894531 L 3.546875 1.175781 Z M 11.851562 20.851562 L 11.414062 21.582031 L 11.851562 21.839844 L 12.285156 21.582031 Z M 21.398438 12.511719 L 20.679688 12.0625 Z M 20.152344 1.175781 C 17.476562 -0.527344 15.179688 -0.121094 13.578125 0.761719 C 12.800781 1.191406 12.199219 1.722656 11.792969 2.140625 C 11.589844 2.351562 11.433594 2.539062 11.328125 2.675781 C 11.273438 2.742188 11.230469 2.796875 11.199219 2.839844 C 11.183594 2.859375 11.171875 2.875 11.164062 2.886719 C 11.160156 2.894531 11.15625 2.898438 11.152344 2.902344 C 11.152344 2.90625 11.152344 2.90625 11.148438 2.910156 C 11.148438 2.910156 11.148438 2.910156 11.148438 2.914062 C 11.148438 2.914062 11.148438 2.914062 11.851562 3.390625 C 12.550781 3.871094 12.550781 3.871094 12.550781 3.871094 C 12.550781 3.871094 12.550781 3.871094 12.554688 3.871094 C 12.554688 3.863281 12.5625 3.855469 12.570312 3.84375 C 12.589844 3.820312 12.617188 3.78125 12.65625 3.730469 C 12.738281 3.632812 12.859375 3.488281 13.019531 3.320312 C 13.34375 2.984375 13.808594 2.574219 14.398438 2.25 C 15.527344 1.628906 17.152344 1.285156 19.238281 2.609375 Z M 11.851562 3.390625 C 12.550781 2.914062 12.550781 2.914062 12.550781 2.914062 C 12.550781 2.910156 12.550781 2.910156 12.550781 2.910156 C 12.550781 2.90625 12.546875 2.90625 12.546875 2.902344 C 12.542969 2.898438 12.539062 2.894531 12.535156 2.886719 C 12.527344 2.875 12.515625 2.859375 12.5 2.839844 C 12.46875 2.796875 12.429688 2.742188 12.375 2.675781 C 12.265625 2.539062 12.109375 2.351562 11.90625 2.140625 C 11.5 1.722656 10.902344 1.191406 10.121094 0.761719 C 8.519531 -0.121094 6.222656 -0.527344 3.546875 1.175781 L 4.460938 2.609375 C 6.546875 1.285156 8.171875 1.628906 9.300781 2.25 C 9.890625 2.574219 10.359375 2.984375 10.683594 3.320312 C 10.84375 3.488281 10.964844 3.632812 11.042969 3.730469 C 11.082031 3.78125 11.109375 3.820312 11.128906 3.84375 C 11.136719 3.855469 11.144531 3.863281 11.148438 3.871094 C 11.148438 3.871094 11.148438 3.871094 11.851562 3.390625 Z M 3.546875 1.175781 C 0.890625 2.867188 0.00390625 5.261719 0 7.507812 C -0.00390625 9.699219 0.824219 11.753906 1.578125 12.960938 L 3.023438 12.0625 C 2.394531 11.054688 1.695312 9.3125 1.699219 7.507812 C 1.703125 5.757812 2.359375 3.949219 4.460938 2.609375 Z M 1.578125 12.960938 C 3.046875 15.3125 5.019531 17.777344 11.414062 21.582031 L 12.285156 20.117188 C 6.078125 16.429688 4.320312 14.140625 3.023438 12.0625 Z M 12.285156 21.582031 C 18.679688 17.777344 20.652344 15.3125 22.121094 12.960938 L 20.679688 12.0625 C 19.378906 14.140625 17.621094 16.429688 11.414062 20.117188 Z M 22.121094 12.960938 C 22.875 11.753906 23.703125 9.699219 23.699219 7.507812 C 23.695312 5.261719 22.808594 2.867188 20.152344 1.175781 L 19.238281 2.609375 C 21.339844 3.949219 21.996094 5.757812 22 7.507812 C 22.003906 9.3125 21.304688 11.054688 20.679688 12.0625 Z M 22.121094 12.960938 "/>
</g>
</g>
</svg>
