<?xml version="1.0" encoding="UTF-8"?>
<svg xmlns="http://www.w3.org/2000/svg" xmlns:xlink="http://www.w3.org/1999/xlink" width="23.48389pt" height="23.12939pt" viewBox="0 0 23.48389 23.12939" version="1.1">
<defs>
<clipPath id="clip1">
  <path d="M 0 0 L 23.484375 0 L 23.484375 23.128906 L 0 23.128906 Z M 0 0 "/>
</clipPath>
</defs>
<g id="surface1">
<path style=" stroke:none;fill-rule:nonzero;fill:rgb(100%,100%,100%);fill-opacity:1;" d="M 21.816406 17.125 C 18.179688 15.363281 17.601562 12.644531 17.574219 12.445312 C 17.542969 12.199219 17.507812 12.007812 17.777344 11.757812 C 18.039062 11.519531 19.191406 10.804688 19.511719 10.582031 C 20.039062 10.210938 20.273438 9.84375 20.101562 9.390625 C 19.980469 9.078125 19.6875 8.957031 19.378906 8.957031 C 19.285156 8.957031 19.1875 8.96875 19.09375 8.992188 C 18.511719 9.117188 17.945312 9.40625 17.621094 9.484375 C 17.582031 9.496094 17.542969 9.5 17.5 9.503906 C 17.328125 9.503906 17.261719 9.425781 17.277344 9.214844 C 17.316406 8.582031 17.40625 7.339844 17.304688 6.183594 C 17.167969 4.59375 16.652344 3.804688 16.042969 3.105469 C 15.75 2.765625 14.382812 1.3125 11.742188 1.3125 C 9.101562 1.3125 7.734375 2.765625 7.441406 3.101562 C 6.832031 3.796875 6.320312 4.585938 6.183594 6.179688 C 6.082031 7.335938 6.171875 8.574219 6.210938 9.210938 C 6.222656 9.410156 6.160156 9.5 5.988281 9.5 C 5.945312 9.496094 5.90625 9.492188 5.867188 9.480469 C 5.539062 9.402344 4.976562 9.113281 4.394531 8.984375 C 4.300781 8.964844 4.203125 8.953125 4.109375 8.953125 C 3.796875 8.953125 3.507812 9.074219 3.386719 9.386719 C 3.214844 9.839844 3.449219 10.207031 3.976562 10.578125 C 4.296875 10.800781 5.449219 11.515625 5.710938 11.753906 C 5.980469 12.003906 5.945312 12.195312 5.914062 12.4375 C 5.886719 12.644531 5.308594 15.363281 1.671875 17.121094 C 1.457031 17.222656 1.09375 17.441406 1.734375 17.792969 C 2.738281 18.347656 3.40625 18.289062 3.925781 18.621094 C 4.363281 18.90625 4.105469 19.519531 4.425781 19.738281 C 4.820312 20.011719 5.980469 19.71875 7.484375 20.214844 C 8.746094 20.632812 9.511719 21.804688 11.746094 21.804688 C 13.980469 21.804688 14.765625 20.625 16.003906 20.214844 C 17.503906 19.71875 18.671875 20.011719 19.066406 19.738281 C 19.382812 19.519531 19.125 18.90625 19.566406 18.621094 C 20.085938 18.289062 20.75 18.347656 21.753906 17.792969 C 22.394531 17.445312 22.03125 17.226562 21.816406 17.125 Z M 21.816406 17.125 "/>
<g clip-path="url(#clip1)" clip-rule="nonzero">
<path style=" stroke:none;fill-rule:nonzero;fill:rgb(0%,0%,0%);fill-opacity:1;" d="M 23.398438 16.917969 C 23.238281 16.472656 22.925781 16.234375 22.570312 16.039062 C 22.503906 16 22.445312 15.96875 22.390625 15.945312 C 22.285156 15.890625 22.179688 15.835938 22.070312 15.78125 C 20.96875 15.195312 20.105469 14.457031 19.507812 13.582031 C 19.339844 13.335938 19.191406 13.074219 19.066406 12.804688 C 19.015625 12.65625 19.019531 12.574219 19.054688 12.5 C 19.09375 12.441406 19.140625 12.390625 19.199219 12.351562 C 19.386719 12.226562 19.582031 12.097656 19.714844 12.011719 C 19.953125 11.859375 20.140625 11.738281 20.257812 11.652344 C 20.710938 11.335938 21.027344 11 21.226562 10.625 C 21.367188 10.363281 21.445312 10.078125 21.464844 9.785156 C 21.480469 9.488281 21.433594 9.195312 21.328125 8.921875 C 21.027344 8.132812 20.28125 7.640625 19.378906 7.640625 C 19.1875 7.640625 19 7.660156 18.8125 7.699219 C 18.761719 7.710938 18.710938 7.722656 18.664062 7.734375 C 18.671875 7.195312 18.660156 6.625 18.613281 6.066406 C 18.441406 4.09375 17.75 3.058594 17.03125 2.234375 C 16.570312 1.71875 16.027344 1.28125 15.425781 0.941406 C 14.332031 0.316406 13.09375 0 11.742188 0 C 10.390625 0 9.15625 0.316406 8.0625 0.941406 C 7.460938 1.28125 6.914062 1.71875 6.453125 2.238281 C 5.734375 3.0625 5.042969 4.097656 4.871094 6.066406 C 4.824219 6.628906 4.8125 7.203125 4.820312 7.738281 C 4.773438 7.726562 4.722656 7.714844 4.671875 7.703125 C 4.488281 7.664062 4.296875 7.644531 4.105469 7.644531 C 3.203125 7.644531 2.453125 8.132812 2.15625 8.921875 C 2.050781 9.199219 2.003906 9.492188 2.019531 9.785156 C 2.035156 10.082031 2.117188 10.367188 2.253906 10.628906 C 2.453125 11.003906 2.769531 11.339844 3.222656 11.65625 C 3.34375 11.742188 3.53125 11.863281 3.769531 12.015625 C 3.894531 12.101562 4.082031 12.222656 4.265625 12.34375 C 4.328125 12.382812 4.382812 12.4375 4.425781 12.503906 C 4.464844 12.582031 4.464844 12.664062 4.40625 12.820312 C 4.285156 13.089844 4.140625 13.34375 3.976562 13.585938 C 3.390625 14.441406 2.554688 15.164062 1.484375 15.746094 C 0.921875 16.046875 0.332031 16.246094 0.0820312 16.921875 C -0.101562 17.429688 0.0195312 18.011719 0.496094 18.5 C 0.667969 18.679688 0.871094 18.835938 1.09375 18.953125 C 1.558594 19.207031 2.050781 19.40625 2.5625 19.539062 C 2.667969 19.566406 2.769531 19.613281 2.859375 19.671875 C 3.03125 19.824219 3.007812 20.054688 3.238281 20.386719 C 3.355469 20.5625 3.503906 20.710938 3.671875 20.828125 C 4.160156 21.164062 4.703125 21.183594 5.28125 21.207031 C 5.800781 21.226562 6.394531 21.25 7.066406 21.472656 C 7.347656 21.566406 7.636719 21.742188 7.972656 21.953125 C 8.78125 22.449219 9.890625 23.128906 11.742188 23.128906 C 13.59375 23.128906 14.707031 22.445312 15.519531 21.949219 C 15.855469 21.742188 16.144531 21.566406 16.414062 21.476562 C 17.089844 21.253906 17.679688 21.230469 18.203125 21.210938 C 18.78125 21.1875 19.324219 21.167969 19.808594 20.832031 C 20.011719 20.691406 20.179688 20.507812 20.304688 20.292969 C 20.46875 20.007812 20.464844 19.8125 20.621094 19.675781 C 20.707031 19.617188 20.800781 19.574219 20.898438 19.546875 C 21.417969 19.410156 21.917969 19.210938 22.386719 18.953125 C 22.625 18.828125 22.839844 18.660156 23.019531 18.460938 L 23.023438 18.453125 C 23.46875 17.976562 23.582031 17.414062 23.398438 16.917969 Z M 21.753906 17.800781 C 20.75 18.355469 20.082031 18.296875 19.5625 18.628906 C 19.121094 18.914062 19.382812 19.527344 19.0625 19.746094 C 18.667969 20.019531 17.507812 19.726562 16.003906 20.222656 C 14.765625 20.632812 13.972656 21.8125 11.742188 21.8125 C 9.515625 21.8125 8.742188 20.636719 7.480469 20.21875 C 5.980469 19.722656 4.816406 20.015625 4.421875 19.742188 C 4.101562 19.523438 4.363281 18.910156 3.921875 18.628906 C 3.402344 18.292969 2.734375 18.351562 1.730469 17.800781 C 1.09375 17.449219 1.453125 17.230469 1.667969 17.125 C 5.304688 15.367188 5.882812 12.648438 5.910156 12.445312 C 5.941406 12.203125 5.976562 12.011719 5.707031 11.761719 C 5.445312 11.523438 4.292969 10.808594 3.976562 10.585938 C 3.445312 10.214844 3.210938 9.847656 3.382812 9.394531 C 3.503906 9.078125 3.796875 8.960938 4.105469 8.960938 C 4.203125 8.960938 4.296875 8.972656 4.394531 8.992188 C 4.972656 9.121094 5.539062 9.410156 5.863281 9.488281 C 5.902344 9.5 5.941406 9.503906 5.984375 9.503906 C 6.15625 9.503906 6.21875 9.417969 6.207031 9.21875 C 6.167969 8.582031 6.078125 7.34375 6.179688 6.1875 C 6.316406 4.59375 6.832031 3.804688 7.441406 3.109375 C 7.734375 2.773438 9.109375 1.320312 11.738281 1.320312 C 14.371094 1.320312 15.75 2.765625 16.042969 3.101562 C 16.652344 3.796875 17.167969 4.585938 17.300781 6.179688 C 17.402344 7.335938 17.316406 8.578125 17.277344 9.210938 C 17.261719 9.421875 17.324219 9.496094 17.5 9.496094 C 17.539062 9.496094 17.578125 9.492188 17.617188 9.480469 C 17.945312 9.402344 18.507812 9.113281 19.089844 8.984375 C 19.183594 8.964844 19.28125 8.953125 19.378906 8.953125 C 19.6875 8.953125 19.980469 9.074219 20.097656 9.386719 C 20.269531 9.839844 20.039062 10.207031 19.507812 10.578125 C 19.1875 10.800781 18.035156 11.515625 17.777344 11.753906 C 17.507812 12.003906 17.542969 12.195312 17.574219 12.4375 C 17.597656 12.644531 18.179688 15.363281 21.816406 17.121094 C 22.03125 17.226562 22.394531 17.445312 21.753906 17.800781 Z M 21.753906 17.800781 "/>
</g>
</g>
</svg>
