<?xml version="1.0" encoding="UTF-8"?>
<svg xmlns="http://www.w3.org/2000/svg" xmlns:xlink="http://www.w3.org/1999/xlink" width="20pt" height="20pt" viewBox="0 0 20 20" version="1.1">
<defs>
<clipPath id="clip1">
  <path d="M 4.816406 7.070312 L 6.230469 8.484375 C 6.21875 8.496094 6.207031 8.507812 6.191406 8.519531 L 3.09375 11.617188 C 1.636719 13.078125 1.640625 15.441406 3.097656 16.902344 C 4.554688 18.359375 6.917969 18.359375 8.378906 16.90625 L 11.515625 13.769531 L 12.929688 15.183594 C 12.917969 15.195312 12.90625 15.207031 12.894531 15.21875 L 9.796875 18.316406 C 8.722656 19.398438 7.261719 20.003906 5.738281 20 C 3.417969 20 1.324219 18.601562 0.4375 16.457031 C -0.449219 14.3125 0.0390625 11.847656 1.679688 10.203125 Z M 14.390625 16.121094 L 16.148438 18.515625 C 16.386719 18.839844 16.390625 19.277344 16.15625 19.605469 C 15.925781 19.933594 15.511719 20.074219 15.125 19.960938 C 14.742188 19.84375 14.476562 19.492188 14.464844 19.089844 Z M 16.117188 14.390625 L 19.089844 14.46875 C 19.382812 14.476562 19.660156 14.625 19.828125 14.867188 C 20 15.113281 20.042969 15.421875 19.945312 15.703125 C 19.851562 15.980469 19.625 16.199219 19.34375 16.289062 C 19.058594 16.378906 18.75 16.328125 18.511719 16.152344 Z M 13.261719 5.324219 C 13.652344 4.933594 14.285156 4.933594 14.675781 5.324219 C 15.0625 5.714844 15.066406 6.347656 14.675781 6.738281 L 6.734375 14.675781 C 6.34375 15.066406 5.710938 15.066406 5.320312 14.675781 C 5.132812 14.488281 5.027344 14.234375 5.027344 13.96875 C 5.027344 13.703125 5.132812 13.449219 5.320312 13.261719 Z M 14.261719 0 C 16.582031 0 18.675781 1.394531 19.5625 3.539062 C 20.449219 5.683594 19.960938 8.152344 18.320312 9.792969 L 15.183594 12.929688 L 13.769531 11.511719 C 13.78125 11.503906 13.792969 11.492188 13.804688 11.476562 L 16.902344 8.378906 C 17.847656 7.433594 18.21875 6.058594 17.871094 4.769531 C 17.523438 3.476562 16.519531 2.472656 15.226562 2.125 C 13.9375 1.78125 12.5625 2.148438 11.617188 3.09375 L 8.519531 6.191406 C 8.507812 6.203125 8.496094 6.214844 8.484375 6.230469 L 7.070312 4.816406 C 7.082031 4.800781 7.09375 4.792969 7.105469 4.777344 L 10.203125 1.679688 C 11.277344 0.601562 12.738281 -0.00390625 14.261719 0 Z M 0.394531 3.839844 C 0.722656 3.609375 1.160156 3.613281 1.484375 3.847656 L 3.878906 5.609375 L 0.910156 5.53125 C 0.507812 5.519531 0.160156 5.253906 0.0429688 4.871094 C -0.0742188 4.488281 0.0664062 4.070312 0.394531 3.839844 Z M 4.296875 0.0507812 C 4.578125 -0.046875 4.886719 0 5.132812 0.167969 C 5.375 0.335938 5.523438 0.613281 5.53125 0.910156 L 5.609375 3.878906 L 3.847656 1.484375 C 3.671875 1.246094 3.621094 0.9375 3.710938 0.652344 C 3.800781 0.371094 4.019531 0.148438 4.296875 0.0507812 Z M 4.296875 0.0507812 "/>
</clipPath>
</defs>
<g id="surface1">
<g clip-path="url(#clip1)" clip-rule="nonzero">
<rect x="0" y="0" width="20" height="20" style="fill:rgb(0%,0%,0%);fill-opacity:1;stroke:none;"/>
</g>
</g>
</svg>
