<?xml version="1.0" encoding="UTF-8"?>
<svg xmlns="http://www.w3.org/2000/svg" xmlns:xlink="http://www.w3.org/1999/xlink" width="19pt" height="19pt" viewBox="0 0 19 19" version="1.1">
<defs>
<clipPath id="clip1">
  <path d="M 7.84375 0 L 11.292969 0 L 11.34375 0.644531 C 11.421875 1.125 11.558594 1.527344 11.761719 1.847656 C 12.390625 2.835938 13.523438 2.753906 15.160156 1.609375 C 15.203125 1.648438 15.253906 1.699219 15.3125 1.757812 L 17.425781 4.023438 L 17.011719 4.519531 C 16.71875 4.914062 16.53125 5.300781 16.457031 5.671875 C 16.1875 6.808594 17.035156 7.566406 19 7.9375 C 19 8.003906 19 8.066406 19 8.125 L 19 11.253906 L 18.359375 11.304688 C 17.871094 11.378906 17.472656 11.519531 17.160156 11.722656 C 16.171875 12.355469 16.25 13.492188 17.402344 15.140625 C 17.351562 15.179688 17.300781 15.230469 17.25 15.292969 L 14.996094 17.429688 L 14.503906 17 C 14.109375 16.703125 13.730469 16.519531 13.359375 16.441406 C 12.226562 16.171875 11.476562 17.023438 11.105469 19 C 10.914062 19 10.730469 19 10.5625 19 C 10.429688 19 10.304688 19 10.1875 19 L 9.003906 19 C 8.875 19 8.746094 19 8.613281 19 C 8.4375 19 8.238281 19 8.019531 19 C 7.652344 17.023438 6.890625 16.171875 5.742188 16.441406 C 5.355469 16.519531 4.96875 16.703125 4.582031 17 L 4.066406 17.429688 L 1.789062 15.292969 C 1.730469 15.230469 1.679688 15.179688 1.636719 15.140625 C 2.804688 13.492188 2.878906 12.355469 1.863281 11.722656 C 1.542969 11.519531 1.140625 11.378906 0.65625 11.304688 L 0 11.253906 L 0 8.125 C 0 8.066406 0 8.003906 0 7.9375 C 1.996094 7.566406 2.863281 6.808594 2.59375 5.671875 C 2.511719 5.300781 2.316406 4.914062 2.015625 4.519531 L 1.597656 4.023438 L 3.753906 1.757812 C 3.8125 1.699219 3.859375 1.648438 3.902344 1.609375 C 5.574219 2.753906 6.726562 2.835938 7.367188 1.847656 C 7.566406 1.527344 7.710938 1.125 7.792969 0.644531 Z M 14.339844 9.429688 C 14.339844 10.753906 13.871094 11.886719 12.929688 12.824219 C 12 13.769531 10.875 14.242188 9.558594 14.242188 C 8.238281 14.242188 7.109375 13.769531 6.167969 12.824219 C 5.238281 11.886719 4.773438 10.753906 4.773438 9.429688 C 4.773438 8.105469 5.238281 6.96875 6.167969 6.023438 C 7.109375 5.089844 8.238281 4.621094 9.558594 4.621094 C 10.875 4.621094 12 5.089844 12.929688 6.023438 C 13.871094 6.96875 14.339844 8.105469 14.339844 9.429688 Z M 14.339844 9.429688 "/>
</clipPath>
</defs>
<g id="surface1">
<g clip-path="url(#clip1)" clip-rule="evenodd">
<rect x="0" y="0" width="19" height="19" style="fill:rgb(0%,0%,0%);fill-opacity:1;stroke:none;"/>
</g>
</g>
</svg>
