<?xml version="1.0" encoding="UTF-8"?>
<svg xmlns="http://www.w3.org/2000/svg" xmlns:xlink="http://www.w3.org/1999/xlink" width="80pt" height="80pt" viewBox="0 0 80 80" version="1.1">
<defs>
<clipPath id="clip1">
  <path d="M 80 40 C 80 62.089844 62.089844 80 40 80 C 17.910156 80 0 62.089844 0 40 C 0 17.910156 17.910156 0 40 0 C 62.089844 0 80 17.910156 80 40 Z M 80 40 "/>
</clipPath>
</defs>
<g id="surface1">
<g clip-path="url(#clip1)" clip-rule="evenodd">
<path style=" stroke:none;fill-rule:nonzero;fill:rgb(0%,0%,0%);fill-opacity:1;" d="M 77.5 40 C 77.5 60.710938 60.710938 77.5 40 77.5 L 40 82.5 C 63.472656 82.5 82.5 63.472656 82.5 40 Z M 40 77.5 C 19.289062 77.5 2.5 60.710938 2.5 40 L -2.5 40 C -2.5 63.472656 16.527344 82.5 40 82.5 Z M 2.5 40 C 2.5 19.289062 19.289062 2.5 40 2.5 L 40 -2.5 C 16.527344 -2.5 -2.5 16.527344 -2.5 40 Z M 40 2.5 C 60.710938 2.5 77.5 19.289062 77.5 40 L 82.5 40 C 82.5 16.527344 63.472656 -2.5 40 -2.5 Z M 40 2.5 "/>
</g>
<path style=" stroke:none;fill-rule:nonzero;fill:rgb(0%,0%,0%);fill-opacity:1;" d="M 55.007812 25.875 L 55.65625 24.808594 Z M 40.226562 28.570312 L 39.210938 29.296875 L 40.226562 30.71875 L 41.242188 29.296875 Z M 25.445312 25.875 L 24.796875 24.808594 Z M 40.226562 59.941406 L 39.609375 61.03125 L 40.226562 61.378906 L 40.84375 61.03125 Z M 58.21875 44.957031 L 57.171875 44.273438 Z M 55.65625 24.808594 C 50.753906 21.828125 46.585938 22.542969 43.671875 24.074219 C 42.246094 24.824219 41.144531 25.753906 40.394531 26.492188 C 40.023438 26.863281 39.730469 27.191406 39.535156 27.429688 C 39.433594 27.546875 39.355469 27.644531 39.304688 27.714844 C 39.277344 27.75 39.253906 27.78125 39.238281 27.800781 C 39.230469 27.8125 39.226562 27.820312 39.21875 27.828125 C 39.21875 27.832031 39.214844 27.832031 39.214844 27.835938 C 39.210938 27.835938 39.210938 27.839844 39.210938 27.839844 C 39.210938 27.839844 39.210938 27.839844 40.226562 28.570312 C 41.242188 29.296875 41.242188 29.296875 41.242188 29.296875 C 41.242188 29.296875 41.246094 29.292969 41.25 29.289062 C 41.253906 29.28125 41.265625 29.261719 41.285156 29.238281 C 41.320312 29.195312 41.378906 29.121094 41.453125 29.03125 C 41.609375 28.84375 41.84375 28.578125 42.152344 28.269531 C 42.777344 27.652344 43.6875 26.890625 44.835938 26.289062 C 47.074219 25.109375 50.296875 24.480469 54.359375 26.945312 Z M 40.226562 28.570312 C 41.242188 27.839844 41.242188 27.839844 41.242188 27.839844 C 41.242188 27.839844 41.242188 27.835938 41.238281 27.835938 C 41.238281 27.832031 41.234375 27.832031 41.234375 27.828125 C 41.226562 27.820312 41.222656 27.8125 41.214844 27.800781 C 41.199219 27.78125 41.175781 27.75 41.148438 27.714844 C 41.097656 27.644531 41.019531 27.546875 40.917969 27.429688 C 40.722656 27.191406 40.429688 26.863281 40.058594 26.492188 C 39.308594 25.753906 38.207031 24.824219 36.78125 24.074219 C 33.867188 22.542969 29.699219 21.828125 24.796875 24.808594 L 26.09375 26.945312 C 30.15625 24.480469 33.378906 25.109375 35.617188 26.289062 C 36.765625 26.890625 37.675781 27.652344 38.300781 28.269531 C 38.609375 28.578125 38.84375 28.84375 39 29.03125 C 39.074219 29.121094 39.132812 29.195312 39.167969 29.238281 C 39.1875 29.261719 39.199219 29.28125 39.203125 29.289062 C 39.207031 29.292969 39.210938 29.296875 39.210938 29.296875 C 39.210938 29.296875 39.210938 29.296875 40.226562 28.570312 Z M 24.796875 24.808594 C 19.902344 27.777344 18.257812 31.980469 18.25 35.964844 C 18.242188 39.859375 19.789062 43.503906 21.1875 45.640625 L 23.28125 44.273438 C 22.074219 42.433594 20.742188 39.257812 20.75 35.96875 C 20.757812 32.765625 22.019531 29.417969 26.09375 26.945312 Z M 21.1875 45.640625 C 23.921875 49.820312 27.597656 54.222656 39.609375 61.03125 L 40.84375 58.855469 C 29.105469 52.203125 25.753906 48.054688 23.28125 44.273438 Z M 40.84375 61.03125 C 52.855469 54.222656 56.53125 49.820312 59.265625 45.640625 L 57.171875 44.273438 C 54.699219 48.054688 51.347656 52.203125 39.609375 58.855469 Z M 59.265625 45.640625 C 60.664062 43.503906 62.210938 39.859375 62.203125 35.964844 C 62.195312 31.980469 60.550781 27.777344 55.65625 24.808594 L 54.359375 26.945312 C 58.433594 29.417969 59.695312 32.765625 59.703125 35.96875 C 59.710938 39.257812 58.378906 42.433594 57.171875 44.273438 Z M 59.265625 45.640625 "/>
</g>
</svg>
