<?xml version="1.0" encoding="UTF-8"?>
<svg xmlns="http://www.w3.org/2000/svg" xmlns:xlink="http://www.w3.org/1999/xlink" width="21pt" height="18pt" viewBox="0 0 21 18" version="1.1">
<g id="surface1">
<path style=" stroke:none;fill-rule:nonzero;fill:rgb(100%,100%,100%);fill-opacity:1;" d="M 20.730469 15.941406 L 11.601562 0.671875 C 11.34375 0.246094 10.960938 0 10.546875 0 C 10.132812 0 9.75 0.246094 9.492188 0.671875 L 0.242188 16.171875 C -0.0390625 16.640625 -0.078125 17.136719 0.136719 17.503906 C 0.324219 17.824219 0.683594 18 1.148438 18 L 19.945312 18 C 20.347656 18 20.65625 17.839844 20.835938 17.53125 C 21.089844 17.101562 21.046875 16.464844 20.730469 15.941406 Z M 11.875 5.203125 L 11.328125 12.566406 L 9.671875 12.566406 L 9.125 5.203125 Z M 10.492188 16.195312 C 9.6875 16.195312 9.070312 15.59375 9.070312 14.832031 C 9.070312 14.054688 9.6875 13.453125 10.492188 13.453125 C 11.292969 13.453125 11.929688 14.054688 11.929688 14.832031 C 11.929688 15.59375 11.292969 16.195312 10.492188 16.195312 Z M 10.492188 16.195312 "/>
</g>
</svg>
