<?xml version="1.0" encoding="UTF-8"?>
<svg xmlns="http://www.w3.org/2000/svg" xmlns:xlink="http://www.w3.org/1999/xlink" width="17.06201pt" height="17.0213pt" viewBox="0 0 17.06201 17.0213" version="1.1">
<defs>
<clipPath id="clip1">
  <path d="M 0 0 L 17.0625 0 L 17.0625 17.019531 L 0 17.019531 Z M 0 0 "/>
</clipPath>
</defs>
<g id="surface1">
<g clip-path="url(#clip1)" clip-rule="nonzero">
<path style=" stroke:none;fill-rule:evenodd;fill:rgb(0%,0%,0%);fill-opacity:1;" d="M 10.570312 8.523438 L 16.621094 2.46875 C 17.363281 1.726562 17.03125 0.878906 16.613281 0.460938 C 16.199219 0.0429688 15.347656 -0.289062 14.605469 0.453125 L 8.554688 6.507812 L 2.507812 0.460938 C 1.730469 -0.320312 0.917969 0.0390625 0.492188 0.460938 C 0.0703125 0.882812 -0.363281 1.617188 0.492188 2.476562 L 6.539062 8.523438 L 0.5 14.5625 C -0.242188 15.300781 0.078125 16.167969 0.492188 16.582031 C 0.910156 17 1.773438 17.316406 2.515625 16.574219 L 8.554688 10.535156 L 14.601562 16.582031 C 15.339844 17.320312 16.207031 16.992188 16.621094 16.574219 C 17.039062 16.160156 17.355469 15.304688 16.613281 14.566406 Z M 10.570312 8.523438 "/>
</g>
</g>
</svg>
