<?xml version="1.0" encoding="UTF-8"?>
<svg xmlns="http://www.w3.org/2000/svg" xmlns:xlink="http://www.w3.org/1999/xlink" width="19.80005pt" height="17.94092pt" viewBox="0 0 19.80005 17.94092" version="1.1">
<g id="surface1">
<path style=" stroke:none;fill-rule:nonzero;fill:rgb(0%,0%,0%);fill-opacity:1;" d="M 16.320312 1.734375 L 16.792969 0.972656 Z M 9.898438 2.933594 L 9.160156 3.449219 L 9.898438 4.507812 L 10.636719 3.449219 Z M 3.480469 1.734375 L 3.003906 0.972656 Z M 9.898438 16.898438 L 9.449219 17.679688 L 9.898438 17.941406 L 10.351562 17.679688 Z M 17.710938 10.230469 L 16.953125 9.746094 Z M 16.792969 0.972656 C 14.539062 -0.433594 12.585938 -0.101562 11.222656 0.632812 C 10.5625 0.988281 10.054688 1.429688 9.714844 1.773438 C 9.542969 1.949219 9.410156 2.101562 9.316406 2.214844 C 9.269531 2.273438 9.234375 2.320312 9.210938 2.355469 C 9.195312 2.371094 9.1875 2.386719 9.175781 2.394531 C 9.171875 2.402344 9.171875 2.40625 9.167969 2.410156 C 9.167969 2.410156 9.164062 2.414062 9.164062 2.414062 C 9.164062 2.414062 9.164062 2.417969 9.164062 2.417969 C 9.160156 2.417969 9.160156 2.417969 9.898438 2.933594 C 10.636719 3.449219 10.636719 3.449219 10.636719 3.449219 C 10.636719 3.453125 10.636719 3.453125 10.636719 3.453125 C 10.636719 3.453125 10.636719 3.453125 10.636719 3.449219 C 10.640625 3.449219 10.644531 3.441406 10.648438 3.433594 C 10.664062 3.417969 10.683594 3.386719 10.714844 3.351562 C 10.777344 3.273438 10.871094 3.164062 10.996094 3.039062 C 11.25 2.78125 11.617188 2.464844 12.078125 2.21875 C 12.945312 1.75 14.203125 1.480469 15.84375 2.5 Z M 9.898438 2.933594 C 10.636719 2.417969 10.636719 2.417969 10.636719 2.417969 C 10.636719 2.417969 10.636719 2.414062 10.636719 2.414062 C 10.632812 2.414062 10.632812 2.410156 10.632812 2.410156 C 10.628906 2.40625 10.625 2.402344 10.621094 2.394531 C 10.613281 2.386719 10.605469 2.371094 10.589844 2.355469 C 10.566406 2.320312 10.527344 2.273438 10.480469 2.214844 C 10.390625 2.101562 10.257812 1.949219 10.085938 1.773438 C 9.746094 1.429688 9.238281 0.988281 8.578125 0.632812 C 7.210938 -0.101562 5.261719 -0.433594 3.003906 0.972656 L 3.957031 2.5 C 5.59375 1.480469 6.851562 1.75 7.722656 2.21875 C 8.183594 2.464844 8.550781 2.78125 8.804688 3.039062 C 8.929688 3.164062 9.023438 3.273438 9.085938 3.351562 C 9.117188 3.386719 9.136719 3.417969 9.152344 3.433594 C 9.15625 3.441406 9.160156 3.449219 9.164062 3.449219 C 9.164062 3.453125 9.164062 3.453125 9.164062 3.453125 C 9.164062 3.453125 9.164062 3.453125 9.164062 3.449219 C 9.160156 3.449219 9.160156 3.449219 9.898438 2.933594 Z M 3.003906 0.972656 C 0.761719 2.367188 0.00390625 4.355469 0 6.226562 C -0.00390625 8.035156 0.695312 9.71875 1.328125 10.714844 L 2.84375 9.746094 C 2.347656 8.964844 1.796875 7.613281 1.800781 6.226562 C 1.800781 4.898438 2.304688 3.527344 3.957031 2.5 Z M 1.328125 10.714844 C 2.550781 12.628906 4.191406 14.625 9.449219 17.679688 L 10.351562 16.121094 C 5.296875 13.183594 3.886719 11.375 2.84375 9.746094 Z M 10.351562 17.679688 C 15.609375 14.625 17.25 12.628906 18.472656 10.714844 L 16.953125 9.746094 C 15.914062 11.375 14.503906 13.183594 9.449219 16.121094 Z M 18.472656 10.714844 C 19.105469 9.71875 19.804688 8.035156 19.800781 6.226562 C 19.796875 4.355469 19.035156 2.367188 16.792969 0.972656 L 15.84375 2.5 C 17.496094 3.527344 17.996094 4.898438 18 6.226562 C 18.003906 7.613281 17.453125 8.964844 16.953125 9.746094 Z M 18.472656 10.714844 "/>
</g>
</svg>
