<?xml version="1.0" encoding="UTF-8"?>
<svg xmlns="http://www.w3.org/2000/svg" xmlns:xlink="http://www.w3.org/1999/xlink" width="80pt" height="80pt" viewBox="0 0 80 80" version="1.1">
<g id="surface1">
<path style=" stroke:none;fill-rule:evenodd;fill:rgb(0%,0%,0%);fill-opacity:1;" d="M 77.5 40 C 77.5 60.710938 60.710938 77.5 40 77.5 C 19.289062 77.5 2.5 60.710938 2.5 40 C 2.5 19.289062 19.289062 2.5 40 2.5 C 60.710938 2.5 77.5 19.289062 77.5 40 Z M 80 40 C 80 62.089844 62.089844 80 40 80 C 17.910156 80 0 62.089844 0 40 C 0 17.910156 17.910156 0 40 0 C 62.089844 0 80 17.910156 80 40 Z M 35.273438 23.300781 L 34.773438 23.300781 L 34.421875 23.65625 L 29.777344 28.335938 L 21.300781 28.335938 L 21.300781 53.199219 L 58.699219 53.199219 L 58.699219 28.335938 L 50.222656 28.335938 L 45.578125 23.65625 L 45.226562 23.300781 Z M 31.128906 30.382812 L 35.773438 25.699219 L 44.226562 25.699219 L 48.871094 30.382812 L 49.222656 30.738281 L 56.300781 30.738281 L 56.300781 50.800781 L 23.699219 50.800781 L 23.699219 30.738281 L 30.777344 30.738281 Z M 40.054688 31.878906 C 35.910156 31.878906 32.550781 35.238281 32.550781 39.382812 C 32.550781 43.527344 35.910156 46.886719 40.054688 46.886719 C 44.203125 46.886719 47.5625 43.527344 47.5625 39.382812 C 47.5625 35.238281 44.203125 31.878906 40.054688 31.878906 Z M 34.949219 39.382812 C 34.949219 36.5625 37.234375 34.277344 40.054688 34.277344 C 42.875 34.277344 45.164062 36.5625 45.164062 39.382812 C 45.164062 42.203125 42.875 44.488281 40.054688 44.488281 C 37.234375 44.488281 34.949219 42.203125 34.949219 39.382812 Z M 34.949219 39.382812 "/>
</g>
</svg>
