<?xml version="1.0" encoding="UTF-8"?>
<svg xmlns="http://www.w3.org/2000/svg" xmlns:xlink="http://www.w3.org/1999/xlink" width="9.380859pt" height="15.45019pt" viewBox="0 0 9.380859 15.45019" version="1.1">
<defs>
<clipPath id="clip1">
  <path d="M 0 0 L 9.378906 0 L 9.378906 15.449219 L 0 15.449219 Z M 0 0 "/>
</clipPath>
</defs>
<g id="surface1">
<path style=" stroke:none;fill-rule:nonzero;fill:rgb(0%,0%,0%);fill-opacity:1;" d="M 2.023438 14.722656 L 8.691406 7.722656 L 2.023438 0.722656 L 0.691406 2.125 L 6.023438 7.722656 L 0.691406 13.324219 Z M 2.023438 14.722656 "/>
<g clip-path="url(#clip1)" clip-rule="nonzero">
<path style=" stroke:none;fill-rule:nonzero;fill:rgb(0%,0%,0%);fill-opacity:1;" d="M 2.023438 14.722656 L 2.386719 15.070312 L 2.023438 15.449219 L 1.660156 15.070312 Z M 8.691406 7.722656 L 9.050781 7.378906 L 9.382812 7.722656 L 9.050781 8.070312 Z M 2.023438 0.722656 L 1.660156 0.378906 L 2.023438 0 L 2.386719 0.378906 Z M 0.691406 2.125 L 0.328125 2.46875 L 0 2.125 L 0.328125 1.78125 Z M 6.023438 7.722656 L 6.386719 7.378906 L 6.714844 7.722656 L 6.386719 8.070312 Z M 0.691406 13.324219 L 0.328125 13.667969 L 0 13.324219 L 0.328125 12.980469 Z M 1.660156 14.378906 L 8.328125 7.378906 L 9.050781 8.070312 L 2.386719 15.070312 Z M 8.328125 8.070312 L 1.660156 1.070312 L 2.386719 0.378906 L 9.050781 7.378906 Z M 2.386719 1.070312 L 1.050781 2.46875 L 0.328125 1.78125 L 1.660156 0.378906 Z M 1.050781 1.78125 L 6.386719 7.378906 L 5.660156 8.070312 L 0.328125 2.46875 Z M 6.386719 8.070312 L 1.050781 13.667969 L 0.328125 12.980469 L 5.660156 7.378906 Z M 1.050781 12.980469 L 2.386719 14.378906 L 1.660156 15.070312 L 0.328125 13.667969 Z M 1.050781 12.980469 "/>
</g>
</g>
</svg>
